<svg width="323" height="448" viewBox="0 0 323 448" fill="none" xmlns="http://www.w3.org/2000/svg">
<path d="M91.4127 439.84H266.138C289.172 439.84 300.689 439.84 307.844 432.684C315 425.528 315 414.011 315 390.978V56.8623C315 33.8284 315 22.3114 307.844 15.1558C300.689 8 289.172 8 266.138 8H56.8623C33.8286 8 22.3118 8 15.1559 15.1558C8.00006 22.3114 8.00006 33.8284 8.00006 56.8623V356.427C8.00006 361.42 8.00006 363.917 8.92966 366.162C9.85925 368.406 11.6256 370.172 15.1559 373.702L74.1376 432.684C77.6679 436.214 79.4342 437.981 81.6782 438.91C83.9234 439.84 86.4202 439.84 91.4127 439.84Z" fill="#FFF4C6" stroke="#D4B33B" stroke-width="15"/>
<path d="M93.509 439.841V382.834C93.509 369.398 93.509 362.68 89.3349 358.506C85.1609 354.332 78.4423 354.332 65.0064 354.332H8" stroke="#D4B33B" stroke-width="15"/>
</svg>
