<svg width="1118" height="1118" viewBox="0 0 1118 1118" fill="none" xmlns="http://www.w3.org/2000/svg">
<path d="M900.25 337.917C954.832 369.205 1000.42 414.045 1032.61 468.101C1064.8 522.158 1082.5 583.604 1084 646.5C1084.34 720.024 1060.8 791.671 1016.92 850.667L1084 1084L850.667 983.083C786.4 1011.59 716.805 1026.11 646.5 1025.67C559.327 1028.88 473.195 1005.86 399.252 959.582C325.308 913.303 266.957 845.895 231.75 766.083" stroke="#823636" stroke-width="66.6667" stroke-linecap="round" stroke-linejoin="round"/>
<path d="M909 413.167C909 622.583 713 792.333 471.5 792.333C401.195 792.774 331.6 778.259 267.333 749.75L229.416 766.083L33.9997 850.667L101.083 617.333C57.2038 558.337 33.6628 486.691 33.9997 413.167C33.9997 203.75 230 34 471.5 34C683.25 34 860 164.667 900.25 337.917C906.133 362.565 909.07 387.825 909 413.167Z" stroke="white" stroke-width="66.6667" stroke-linecap="round" stroke-linejoin="round"/>
</svg>
