<svg width="493" height="1050" viewBox="0 0 493 1050" fill="none" xmlns="http://www.w3.org/2000/svg">
<path fill-rule="evenodd" clip-rule="evenodd" d="M370.365 8H115.284V30.5551H77.1308V54.1353H115.284V95.3591C103.689 82.6737 86.502 74.6398 67.32 74.6398C32.4016 74.6398 4.09473 101.262 4.09473 134.103C4.09473 166.944 32.4016 193.566 67.32 193.566C86.502 193.566 103.689 185.532 115.284 172.847V1024H370.365V54.1353H407.428V30.5551H370.365V8Z" fill="#FFF0CF"/>
<path fill-rule="evenodd" clip-rule="evenodd" d="M370.365 8H263.536V1024H370.365V175.096C381.642 184.921 396.735 190.926 413.32 190.926C448.238 190.926 476.545 164.304 476.545 131.463C476.545 98.6226 448.238 72 413.32 72C396.735 72 381.642 78.0055 370.365 87.8304V54.1353H407.428V30.5551H370.365V8Z" fill="#FFE1A0"/>
<path d="M410.155 213.281C455.387 213.281 492.187 176.482 492.187 131.25C492.187 91.6349 463.96 58.4902 426.562 50.8695V32.8493C426.562 14.7369 411.827 0 393.714 0H98.4742C80.3618 0 65.6249 14.7369 65.6249 32.8493V50.8695C28.2289 58.4902 0 91.6349 0 131.25C0 176.482 36.7991 213.281 82.0311 213.281C93.6939 213.281 104.789 210.818 114.844 206.411V229.687C105.783 229.687 98.4373 237.033 98.4373 246.093C98.4373 255.154 105.783 262.499 114.844 262.499V869.53C105.783 869.53 98.4373 876.875 98.4373 885.936C98.4373 894.918 105.66 902.207 114.616 902.33C112.889 964.7 100.929 1001.55 77.4168 1017.19H49.2187C40.1583 1017.19 32.8124 1024.53 32.8124 1033.59C32.8124 1042.65 40.1583 1050 49.2187 1050H82.0147C82.0249 1050 82.0352 1050 82.0455 1050C82.0557 1050 82.0659 1050 82.0782 1050H410.108C410.119 1050 410.129 1050 410.141 1050C410.151 1050 410.162 1050 410.172 1050H442.968C452.028 1050 459.374 1042.65 459.374 1033.59C459.374 1024.53 452.028 1017.19 442.968 1017.19H414.77C391.258 1001.55 379.297 964.7 377.571 902.33C386.526 902.207 393.749 894.918 393.749 885.936C393.749 876.875 386.403 869.53 377.343 869.53V262.499C386.403 262.499 393.749 255.154 393.749 246.093C393.749 237.033 386.403 229.687 377.343 229.687V206.411C387.4 210.818 398.493 213.281 410.155 213.281ZM162.413 114.844C159.944 102.728 154.793 91.5754 147.613 82.0311H180.468C180.468 91.0914 187.814 98.4373 196.875 98.4373C205.935 98.4373 213.281 91.0914 213.281 82.0311H229.687C229.687 91.0914 237.033 98.4373 246.093 98.4373C255.154 98.4373 262.499 91.0914 262.499 82.0311H278.906C278.906 91.0914 286.252 98.4373 295.312 98.4373C304.372 98.4373 311.718 91.0914 311.718 82.0311H344.576C337.396 91.5754 332.244 102.728 329.775 114.844H162.413ZM459.374 131.25C459.374 158.388 437.293 180.468 410.155 180.468C383.018 180.468 360.937 158.388 360.937 131.25C360.937 104.112 383.018 82.0311 410.155 82.0311C437.293 82.0311 459.374 104.112 459.374 131.25ZM393.749 32.8493V49.2187H98.4558L98.4742 32.8124L393.749 32.8493ZM32.8124 131.25C32.8124 104.112 54.8932 82.0311 82.0311 82.0311C109.169 82.0311 131.25 104.112 131.25 131.25C131.25 158.388 109.169 180.468 82.0311 180.468C54.8932 180.468 32.8124 158.388 32.8124 131.25ZM121.943 1017.19C127.669 1008.08 132.4 997.525 136.159 985.374C139.258 975.354 141.709 964.107 143.546 951.561H246.104C255.164 951.561 262.51 944.215 262.51 935.154C262.51 926.094 255.164 918.748 246.104 918.748H146.768C147.071 913.459 147.301 908 147.447 902.342H344.719C344.846 907.766 345.056 913.248 345.359 918.748H311.718C302.658 918.748 295.312 926.094 295.312 935.154C295.312 944.215 302.658 951.561 311.718 951.561H348.569C352.137 975.659 358.689 998.628 370.391 1017.19H121.943ZM311.718 262.499H344.531V869.53H147.656V262.499H246.093C255.154 262.499 262.499 255.154 262.499 246.093C262.499 237.033 255.154 229.687 246.093 229.687H147.656V180.468C147.656 180.45 147.654 180.431 147.654 180.415C154.813 170.885 159.948 159.751 162.411 147.656H329.775C332.24 159.749 337.375 170.883 344.533 180.415C344.533 180.434 344.531 180.452 344.531 180.468V229.687H311.718C302.658 229.687 295.312 237.033 295.312 246.093C295.312 255.154 302.658 262.499 311.718 262.499Z" fill="#DEBC74"/>
<path d="M82.0312 114.844C77.7041 114.844 73.4795 116.587 70.4238 119.642C67.3682 122.698 65.625 126.943 65.625 131.25C65.625 135.556 67.3682 139.781 70.4238 142.857C73.4795 145.911 77.7041 147.656 82.0312 147.656C86.3378 147.656 90.583 145.911 93.6386 142.857C96.6943 139.781 98.4374 135.556 98.4374 131.25C98.4374 126.941 96.6943 122.698 93.6386 119.642C90.583 116.587 86.3584 114.844 82.0312 114.844Z" fill="#DEBC74"/>
<path d="M398.548 119.642C395.492 122.698 393.749 126.923 393.749 131.25C393.749 135.575 395.492 139.801 398.548 142.857C401.603 145.911 405.849 147.656 410.155 147.656C414.462 147.656 418.707 145.911 421.763 142.857C424.818 139.781 426.561 135.556 426.561 131.25C426.561 126.941 424.818 122.698 421.763 119.642C418.707 116.587 414.482 114.844 410.155 114.844C405.849 114.844 401.606 116.587 398.548 119.642Z" fill="#DEBC74"/>
<path d="M246.094 164.062C237.033 164.062 229.688 171.408 229.688 180.468V196.875C229.688 205.935 237.033 213.281 246.094 213.281C255.154 213.281 262.5 205.935 262.5 196.875V180.468C262.5 171.408 255.156 164.062 246.094 164.062Z" fill="#DEBC74"/>
<path d="M311.718 196.875V180.468C311.718 171.408 304.372 164.062 295.311 164.062C286.251 164.062 278.905 171.408 278.905 180.468V196.875C278.905 205.935 286.251 213.281 295.311 213.281C304.372 213.281 311.718 205.935 311.718 196.875Z" fill="#DEBC74"/>
<path d="M196.875 164.062C187.815 164.062 180.469 171.408 180.469 180.468V196.875C180.469 205.935 187.815 213.281 196.875 213.281C205.935 213.281 213.281 205.935 213.281 196.875V180.468C213.281 171.408 205.937 164.062 196.875 164.062Z" fill="#DEBC74"/>
<path d="M180.469 295.312C171.408 295.312 164.062 302.658 164.062 311.718V820.311C164.062 829.371 171.408 836.717 180.469 836.717C189.529 836.717 196.875 829.371 196.875 820.311V311.718C196.875 302.658 189.531 295.312 180.469 295.312Z" fill="#DEBC74"/>
<path d="M246.094 295.312C237.033 295.312 229.688 302.658 229.688 311.718V820.311C229.688 829.371 237.033 836.717 246.094 836.717C255.154 836.717 262.5 829.371 262.5 820.311V311.718C262.5 302.658 255.156 295.312 246.094 295.312Z" fill="#DEBC74"/>
<path d="M311.718 836.717C320.778 836.717 328.124 829.371 328.124 820.311V311.718C328.124 302.658 320.778 295.312 311.718 295.312C302.657 295.312 295.312 302.658 295.312 311.718V820.311C295.312 829.371 302.657 836.717 311.718 836.717Z" fill="#DEBC74"/>
</svg>
