<?xml version="1.0" encoding="UTF-8" standalone="no"?>
<!DOCTYPE svg PUBLIC "-//W3C//DTD SVG 1.1//EN" "http://www.w3.org/Graphics/SVG/1.1/DTD/svg11.dtd">
<svg width="100%" height="100%" viewBox="0 0 1200 675" version="1.1" xmlns="http://www.w3.org/2000/svg" xmlns:xlink="http://www.w3.org/1999/xlink" xml:space="preserve" xmlns:serif="http://www.serif.com/" style="fill-rule:evenodd;clip-rule:evenodd;stroke-linecap:round;stroke-linejoin:round;stroke-miterlimit:1.5;">
    <g id="Calque1" transform="matrix(0.125203,0,0,0.115054,274.253,165.701)">
        <g transform="matrix(3.92151,0,0,3.44706,-3582.58,-3606.86)">
            <rect x="628.465" y="769.69" width="1865.91" height="1333.35" style="fill:url(#_Linear1);"/>
        </g>
        <g transform="matrix(2.5689,0,0,2.5689,-1168.64,-494.302)">
            <circle cx="621.617" cy="1380" r="1051.94" style="fill:url(#_Linear2);"/>
        </g>
        <g transform="matrix(2.5689,0,0,2.5689,3591.63,-494.302)">
            <circle cx="621.617" cy="1380" r="1051.94" style="fill:url(#_Linear3);"/>
        </g>
        <g transform="matrix(1.71896,0,0,1.71896,1533.22,348.414)">
            <circle cx="621.617" cy="1380" r="1051.94" style="fill:url(#_Linear4);"/>
        </g>
        <g transform="matrix(11.4067,0,0,12.4129,-4285,-2873.17)">
            <path d="M630.077,347.805L720.424,465.327L495.542,465.327L575.402,347.805L630.077,347.805Z" style="fill:url(#_Linear5);"/>
        </g>
        <g transform="matrix(0.895729,0,0,0.895729,453.224,320.574)">
            <rect x="1811.65" y="677.867" width="1173.97" height="596.545" style="fill:rgb(175,133,42);"/>
        </g>
        <g transform="matrix(2.05909,0,0,2.05909,3487.83,342.576)">
            <circle cx="621.617" cy="1380" r="1051.94" style="fill:url(#_Linear6);"/>
        </g>
        <g transform="matrix(2.05909,0,0,2.05909,-665.433,342.576)">
            <circle cx="621.617" cy="1380" r="1051.94" style="fill:url(#_Linear7);"/>
        </g>
        <g transform="matrix(0.802783,0,0,0.37382,676.168,494.855)">
            <path d="M1811.65,679.341L1811.65,677.867L1812.1,677.867L1811.65,679.341ZM2985.3,677.867L2985.63,677.867L2985.63,678.952L2985.3,677.867Z" style="fill:rgb(102,77,11);"/>
        </g>
        <g transform="matrix(7.98704,0,0,8.69157,-2190.47,-1440.2)">
            <path d="M677.211,277.448L522.801,277.448L541.047,251.791L658.965,251.791L677.211,277.448Z" style="fill:rgb(102,77,11);"/>
        </g>
        <g transform="matrix(7.98704,0,0,8.69157,-2215.04,-1440.2)">
            <circle cx="685.938" cy="222.142" r="17.032" style="fill:rgb(255,197,53);"/>
        </g>
        <g>
            <g>
                <g transform="matrix(13.39,0,0,12.1837,-5044.41,-2268.01)">
                    <rect x="535.746" y="284.227" width="16.269" height="17.864" style="fill:rgb(69,50,0);"/>
                </g>
                <g transform="matrix(5.87283,0,0,12.1837,-955.937,-2268.01)">
                    <rect x="535.746" y="284.227" width="16.269" height="17.864" style="fill:rgb(106,80,13);"/>
                </g>
            </g>
            <g transform="matrix(6.28476,0,0,5.68089,-1179.98,-412.388)">
                <rect x="535.746" y="284.227" width="16.269" height="17.864" style="fill:none;stroke:rgb(77,59,6);stroke-width:2.3px;"/>
            </g>
            <g transform="matrix(3.14238,0,0,5.65359,503.539,-302.956)">
                <rect x="535.746" y="284.227" width="16.269" height="17.864" style="fill:none;stroke:rgb(77,59,6);stroke-width:3.1px;"/>
            </g>
            <g transform="matrix(3.14238,0,0,5.65359,554.663,-302.956)">
                <rect x="535.746" y="284.227" width="16.269" height="17.864" style="fill:none;stroke:rgb(77,59,6);stroke-width:3.1px;"/>
            </g>
        </g>
        <g transform="matrix(1,0,0,1,489.386,0)">
            <g>
                <g transform="matrix(13.39,0,0,12.1837,-5044.41,-2268.01)">
                    <rect x="535.746" y="284.227" width="16.269" height="17.864" style="fill:rgb(69,50,0);"/>
                </g>
                <g transform="matrix(5.87283,0,0,12.1837,-955.937,-2268.01)">
                    <rect x="535.746" y="284.227" width="16.269" height="17.864" style="fill:rgb(106,80,13);"/>
                </g>
            </g>
            <g transform="matrix(6.28476,0,0,5.68089,-1179.98,-412.388)">
                <rect x="535.746" y="284.227" width="16.269" height="17.864" style="fill:none;stroke:rgb(77,59,6);stroke-width:2.3px;"/>
            </g>
            <g transform="matrix(3.14238,0,0,5.65359,503.539,-302.956)">
                <rect x="535.746" y="284.227" width="16.269" height="17.864" style="fill:none;stroke:rgb(77,59,6);stroke-width:3.1px;"/>
            </g>
            <g transform="matrix(3.14238,0,0,5.65359,554.663,-302.956)">
                <rect x="535.746" y="284.227" width="16.269" height="17.864" style="fill:none;stroke:rgb(77,59,6);stroke-width:3.1px;"/>
            </g>
        </g>
        <g transform="matrix(1,0,0,1,738.342,-2.24127)">
            <g>
                <g transform="matrix(13.39,0,0,12.1837,-5044.41,-2268.01)">
                    <rect x="535.746" y="284.227" width="16.269" height="17.864" style="fill:rgb(69,50,0);"/>
                </g>
                <g transform="matrix(5.87283,0,0,12.1837,-955.937,-2268.01)">
                    <rect x="535.746" y="284.227" width="16.269" height="17.864" style="fill:rgb(106,80,13);"/>
                </g>
            </g>
            <g transform="matrix(6.28476,0,0,5.68089,-1179.98,-412.388)">
                <rect x="535.746" y="284.227" width="16.269" height="17.864" style="fill:none;stroke:rgb(77,59,6);stroke-width:2.3px;"/>
            </g>
            <g transform="matrix(3.14238,0,0,5.65359,503.539,-302.956)">
                <rect x="535.746" y="284.227" width="16.269" height="17.864" style="fill:none;stroke:rgb(77,59,6);stroke-width:3.1px;"/>
            </g>
            <g transform="matrix(3.14238,0,0,5.65359,554.663,-302.956)">
                <rect x="535.746" y="284.227" width="16.269" height="17.864" style="fill:none;stroke:rgb(77,59,6);stroke-width:3.1px;"/>
            </g>
        </g>
        <g transform="matrix(9.54647,0,0,14.9557,-2709.19,-3055.88)">
            <rect x="535.746" y="284.227" width="16.269" height="17.864" style="fill:rgb(69,50,0);"/>
        </g>
        <g transform="matrix(4.77323,0,0,14.9557,-74.2933,-3055.88)">
            <rect x="535.746" y="284.227" width="16.269" height="17.864" style="fill:rgb(40,26,0);"/>
        </g>
        <g>
            <g>
                <g transform="matrix(8.18804,0,0,7.22518,-2216.77,-1044.67)">
                    <rect x="535.746" y="284.227" width="16.269" height="17.864" style="fill:rgb(139,104,47);"/>
                </g>
                <g transform="matrix(8.18804,0,0,2.73711,-2216.77,311.137)">
                    <rect x="535.746" y="284.227" width="16.269" height="17.864" style="fill:rgb(255,226,192);"/>
                </g>
                <g transform="matrix(4.09402,0,0,7.45695,43.1898,-1114.69)">
                    <rect x="535.746" y="284.227" width="16.269" height="17.864" style="fill:none;stroke:rgb(77,59,6);stroke-width:2.36px;"/>
                </g>
                <g transform="matrix(4.09402,0,0,7.45695,-23.4166,-1114.69)">
                    <rect x="535.746" y="284.227" width="16.269" height="17.864" style="fill:none;stroke:rgb(77,59,6);stroke-width:2.36px;"/>
                </g>
            </g>
            <g transform="matrix(1,0,0,1,246.659,0)">
                <g transform="matrix(8.18804,0,0,7.22518,-2216.77,-1044.67)">
                    <rect x="535.746" y="284.227" width="16.269" height="17.864" style="fill:rgb(139,104,47);"/>
                </g>
                <g transform="matrix(8.18804,0,0,2.73711,-2216.77,311.137)">
                    <rect x="535.746" y="284.227" width="16.269" height="17.864" style="fill:rgb(255,226,192);"/>
                </g>
                <g transform="matrix(4.09402,0,0,7.45695,43.1898,-1114.69)">
                    <rect x="535.746" y="284.227" width="16.269" height="17.864" style="fill:none;stroke:rgb(77,59,6);stroke-width:2.36px;"/>
                </g>
                <g transform="matrix(4.09402,0,0,7.45695,-23.4166,-1114.69)">
                    <rect x="535.746" y="284.227" width="16.269" height="17.864" style="fill:none;stroke:rgb(77,59,6);stroke-width:2.36px;"/>
                </g>
            </g>
            <g transform="matrix(1,0,0,1,491.021,0)">
                <g transform="matrix(8.18804,0,0,7.22518,-2216.77,-1044.67)">
                    <rect x="535.746" y="284.227" width="16.269" height="17.864" style="fill:rgb(139,104,47);"/>
                </g>
                <g transform="matrix(8.18804,0,0,2.73711,-2216.77,311.137)">
                    <rect x="535.746" y="284.227" width="16.269" height="17.864" style="fill:rgb(255,226,192);"/>
                </g>
                <g transform="matrix(4.09402,0,0,7.45695,43.1898,-1114.69)">
                    <rect x="535.746" y="284.227" width="16.269" height="17.864" style="fill:none;stroke:rgb(77,59,6);stroke-width:2.36px;"/>
                </g>
                <g transform="matrix(4.09402,0,0,7.45695,-23.4166,-1114.69)">
                    <rect x="535.746" y="284.227" width="16.269" height="17.864" style="fill:none;stroke:rgb(77,59,6);stroke-width:2.36px;"/>
                </g>
            </g>
            <g transform="matrix(1,0,0,1,739.977,0)">
                <g transform="matrix(8.18804,0,0,7.22518,-2216.77,-1044.67)">
                    <rect x="535.746" y="284.227" width="16.269" height="17.864" style="fill:rgb(139,104,47);"/>
                </g>
                <g transform="matrix(8.18804,0,0,2.73711,-2216.77,311.137)">
                    <rect x="535.746" y="284.227" width="16.269" height="17.864" style="fill:rgb(255,226,192);"/>
                </g>
                <g transform="matrix(4.09402,0,0,7.45695,43.1898,-1114.69)">
                    <rect x="535.746" y="284.227" width="16.269" height="17.864" style="fill:none;stroke:rgb(77,59,6);stroke-width:2.36px;"/>
                </g>
                <g transform="matrix(4.09402,0,0,7.45695,-23.4166,-1114.69)">
                    <rect x="535.746" y="284.227" width="16.269" height="17.864" style="fill:none;stroke:rgb(77,59,6);stroke-width:2.36px;"/>
                </g>
            </g>
            <g transform="matrix(4.09356,0,0,4.45464,55.2369,-82.1103)">
                <circle cx="579.895" cy="318.552" r="1.888" style="fill:rgb(255,226,192);stroke:rgb(149,114,44);stroke-width:1.03px;"/>
            </g>
        </g>
        <g transform="matrix(1.04781,0,0,1.04781,-130.363,142.789)">
            <g transform="matrix(7.98704,0,0,8.69157,-2223.24,-1486.41)">
                <path d="M554.292,257.151C554.268,259.666 552.219,261.701 549.698,261.701C547.213,261.701 545.186,259.722 545.107,257.256C545.106,257.221 545.105,257.186 545.105,257.151L545.109,257.151C545.128,257.152 545.147,257.152 545.166,257.152C547.701,257.152 549.759,255.093 549.759,252.558C549.759,255.073 551.785,257.119 554.292,257.151Z" style="fill:none;stroke:rgb(77,59,6);stroke-width:1.33px;"/>
            </g>
            <g transform="matrix(7.98704,0,0,8.69157,-2296.58,-1486.41)">
                <path d="M554.289,257.256C554.211,259.722 552.184,261.701 549.698,261.701C547.178,261.701 545.128,259.666 545.105,257.151C545.129,257.152 545.153,257.152 545.178,257.152C547.619,257.152 549.618,255.244 549.763,252.839C549.907,255.223 551.874,257.12 554.287,257.151L554.292,257.151C554.291,257.186 554.291,257.221 554.289,257.256ZM549.763,252.839C549.757,252.746 549.755,252.652 549.755,252.558C549.755,252.543 549.755,252.528 549.755,252.514C549.76,252.514 549.766,252.514 549.771,252.514C549.771,252.529 549.771,252.543 549.771,252.558C549.771,252.652 549.769,252.746 549.763,252.839Z" style="fill:none;stroke:rgb(77,59,6);stroke-width:1.33px;"/>
            </g>
            <g transform="matrix(7.98704,0,0,8.69157,-2371.37,-1486.41)">
                <path d="M554.292,257.145C554.272,259.598 552.325,261.596 549.891,261.697L553.254,256.968C553.586,257.065 553.933,257.126 554.292,257.145Z" style="fill:none;stroke:rgb(77,59,6);stroke-width:1.33px;"/>
            </g>
            <g transform="matrix(7.98704,0,0,8.69157,-2003.1,-1486.41)">
                <path d="M554.292,257.151C554.268,259.666 552.219,261.701 549.698,261.701C547.178,261.701 545.129,259.666 545.105,257.152C545.125,257.152 545.145,257.152 545.166,257.152C547.701,257.152 549.759,255.093 549.759,252.558C549.759,255.073 551.785,257.119 554.292,257.151Z" style="fill:none;stroke:rgb(77,59,6);stroke-width:1.33px;"/>
            </g>
            <g transform="matrix(7.98704,0,0,8.69157,-1782.96,-1486.41)">
                <path d="M554.292,257.151C554.268,259.666 552.219,261.701 549.698,261.701C547.178,261.701 545.129,259.666 545.105,257.152C545.125,257.152 545.145,257.152 545.166,257.152C547.701,257.152 549.759,255.093 549.759,252.558C549.759,255.073 551.785,257.119 554.292,257.151Z" style="fill:none;stroke:rgb(77,59,6);stroke-width:1.33px;"/>
            </g>
            <g transform="matrix(7.98704,0,0,8.69157,-1561.85,-1486.02)">
                <path d="M554.292,257.151C554.268,259.666 552.219,261.701 549.698,261.701C547.178,261.701 545.129,259.666 545.105,257.151C545.125,257.152 545.145,257.152 545.166,257.152C547.701,257.152 549.759,255.093 549.759,252.558C549.759,255.073 551.785,257.119 554.292,257.151Z" style="fill:none;stroke:rgb(77,59,6);stroke-width:1.33px;"/>
            </g>
            <g transform="matrix(7.98704,0,0,8.69157,-2149.86,-1486.41)">
                <path d="M554.292,257.196C554.244,259.69 552.204,261.701 549.698,261.701C547.178,261.701 545.129,259.666 545.105,257.151C545.125,257.152 545.145,257.152 545.166,257.152C547.686,257.152 549.735,255.118 549.759,252.603C549.759,255.118 551.785,257.163 554.292,257.196Z" style="fill:none;stroke:rgb(77,59,6);stroke-width:1.33px;"/>
            </g>
            <g transform="matrix(7.98704,0,0,8.69157,-1929.72,-1486.41)">
                <path d="M554.292,257.196C554.244,259.69 552.204,261.701 549.698,261.701C547.178,261.701 545.128,259.666 545.105,257.151C545.125,257.152 545.145,257.152 545.166,257.152C547.686,257.152 549.735,255.118 549.759,252.603C549.759,255.118 551.785,257.163 554.292,257.196Z" style="fill:none;stroke:rgb(77,59,6);stroke-width:1.33px;"/>
            </g>
            <g transform="matrix(7.98704,0,0,8.69157,-1709.58,-1486.41)">
                <path d="M554.292,257.196C554.244,259.69 552.204,261.701 549.698,261.701C547.178,261.701 545.128,259.666 545.105,257.151C545.125,257.152 545.145,257.152 545.166,257.152C547.686,257.152 549.735,255.118 549.759,252.603C549.759,255.118 551.785,257.163 554.292,257.196Z" style="fill:none;stroke:rgb(77,59,6);stroke-width:1.33px;"/>
            </g>
            <g transform="matrix(7.98704,0,0,8.69157,-1488.47,-1486.02)">
                <path d="M554.292,257.196C554.244,259.69 552.204,261.701 549.698,261.701C547.178,261.701 545.128,259.666 545.105,257.151C545.125,257.152 545.145,257.152 545.166,257.152C547.686,257.152 549.735,255.118 549.759,252.603C549.759,255.118 551.785,257.163 554.292,257.196Z" style="fill:none;stroke:rgb(77,59,6);stroke-width:1.33px;"/>
            </g>
            <g transform="matrix(7.98704,0,0,8.69157,-2076.48,-1486.02)">
                <path d="M554.292,257.107C554.292,259.642 552.233,261.701 549.698,261.701C547.178,261.701 545.128,259.666 545.104,257.151C545.125,257.152 545.145,257.152 545.166,257.152C547.701,257.152 549.76,255.093 549.76,252.558C549.783,255.052 551.8,257.074 554.292,257.107Z" style="fill:none;stroke:rgb(77,59,6);stroke-width:1.33px;"/>
            </g>
            <g transform="matrix(7.98704,0,0,8.69157,-1856.34,-1486.02)">
                <path d="M554.292,257.107C554.292,259.642 552.233,261.701 549.698,261.701C547.178,261.701 545.128,259.666 545.104,257.151C545.125,257.152 545.145,257.152 545.166,257.152C547.701,257.152 549.76,255.093 549.76,252.558C549.783,255.052 551.8,257.074 554.292,257.107Z" style="fill:none;stroke:rgb(77,59,6);stroke-width:1.33px;"/>
            </g>
            <g transform="matrix(7.98704,0,0,8.69157,-1636.2,-1486.02)">
                <path d="M549.759,252.514C549.8,252.514 549.841,252.515 549.882,252.517C549.882,252.531 549.882,252.544 549.882,252.558C549.882,255.032 551.841,257.052 554.292,257.148C554.269,259.665 552.22,261.701 549.698,261.701C547.178,261.701 545.128,259.666 545.104,257.151C545.125,257.152 545.145,257.152 545.166,257.152C547.701,257.152 549.759,255.093 549.759,252.558C549.759,252.543 549.759,252.528 549.759,252.514Z" style="fill:none;stroke:rgb(77,59,6);stroke-width:1.33px;"/>
            </g>
            <g transform="matrix(7.98704,0,0,8.69157,-1415.09,-1485.63)">
                <path d="M554.292,257.151C554.268,259.666 552.219,261.701 549.698,261.701C547.178,261.701 545.128,259.666 545.104,257.151C545.125,257.152 545.145,257.152 545.166,257.152C547.701,257.152 549.759,255.093 549.759,252.558C549.759,255.073 551.785,257.119 554.292,257.151Z" style="fill:none;stroke:rgb(77,59,6);stroke-width:1.33px;"/>
            </g>
            <g transform="matrix(7.98704,0,0,8.69157,-1341.71,-1485.63)">
                <path d="M554.292,257.151C554.268,259.666 552.219,261.701 549.698,261.701C547.178,261.701 545.128,259.666 545.105,257.151C545.125,257.152 545.145,257.152 545.166,257.152C547.421,257.152 549.299,255.523 549.686,253.378C550.073,255.523 551.951,257.152 554.207,257.152C554.235,257.152 554.264,257.152 554.292,257.151ZM549.686,253.378C549.638,253.112 549.613,252.838 549.613,252.558C549.613,252.543 549.613,252.529 549.614,252.514C549.642,252.514 549.67,252.513 549.698,252.513C549.718,252.513 549.739,252.513 549.759,252.514C549.759,252.528 549.759,252.543 549.759,252.558C549.759,252.838 549.734,253.112 549.686,253.378Z" style="fill:none;stroke:rgb(77,59,6);stroke-width:1.33px;"/>
            </g>
            <g transform="matrix(7.98704,0,0,8.69157,-1268.33,-1485.63)">
                <path d="M554.292,257.151C554.268,259.666 552.219,261.701 549.698,261.701C547.178,261.701 545.128,259.666 545.105,257.151C547.507,257.107 549.461,255.216 549.605,252.839C549.75,255.244 551.749,257.152 554.19,257.152C554.224,257.152 554.258,257.151 554.292,257.151ZM549.605,252.839C549.599,252.746 549.596,252.652 549.596,252.558C549.596,252.544 549.597,252.529 549.597,252.514C549.602,252.514 549.608,252.514 549.613,252.514C549.613,252.529 549.613,252.543 549.613,252.558C549.613,252.652 549.61,252.746 549.605,252.839Z" style="fill:none;stroke:rgb(77,59,6);stroke-width:1.33px;"/>
            </g>
            <g transform="matrix(7.98704,0,0,8.69157,-1194.57,-1485.63)">
                <path d="M546.213,256.977L549.57,261.699C547.108,261.632 545.127,259.623 545.105,257.149C545.488,257.137 545.859,257.078 546.213,256.977Z" style="fill:none;stroke:rgb(77,59,6);stroke-width:1.33px;"/>
            </g>
        </g>
        <g transform="matrix(1.04781,0,0,1.04781,-168.295,101.363)">
            <g transform="matrix(7.98704,0,0,8.69157,-2223.24,-1486.41)">
                <path d="M549.639,252.595C549.638,252.568 549.638,252.541 549.637,252.514L549.641,252.514C549.641,252.541 549.64,252.568 549.639,252.595ZM545.105,257.039L545.121,257.039C545.121,257.047 545.121,257.055 545.121,257.063C545.121,257.077 545.121,257.092 545.121,257.107C545.121,257.201 545.119,257.295 545.113,257.387C545.107,257.295 545.104,257.201 545.104,257.107C545.104,257.092 545.105,257.077 545.105,257.062C545.105,257.055 545.105,257.047 545.105,257.039Z" style="fill:none;stroke:rgb(77,59,6);stroke-width:1.33px;"/>
            </g>
            <g transform="matrix(7.98704,0,0,8.69157,-2296.48,-1486.41)">
                <path d="M554.275,257.039L554.291,257.039C554.291,257.047 554.291,257.055 554.292,257.063C554.292,257.077 554.292,257.092 554.292,257.107C554.292,257.201 554.289,257.295 554.283,257.387C554.278,257.295 554.275,257.201 554.275,257.107C554.275,257.092 554.275,257.077 554.275,257.062C554.275,257.055 554.275,257.047 554.275,257.039Z" style="fill:none;stroke:rgb(77,59,6);stroke-width:1.33px;"/>
            </g>
            <g transform="matrix(7.98704,0,0,8.69157,-1341.71,-1485.63)">
                <path d="M554.146,257.039C554.174,257.039 554.202,257.04 554.231,257.04C554.251,257.04 554.271,257.039 554.291,257.039C554.291,257.047 554.291,257.055 554.292,257.062C554.292,257.077 554.292,257.092 554.292,257.107C554.292,257.387 554.267,257.66 554.219,257.926C554.171,257.66 554.146,257.387 554.146,257.107C554.146,257.092 554.146,257.078 554.146,257.063C554.146,257.055 554.146,257.047 554.146,257.039Z" style="fill:none;stroke:rgb(77,59,6);stroke-width:1.33px;"/>
            </g>
            <g transform="matrix(7.98704,0,0,8.69157,-1269.49,-1485.63)">
                <path d="M545.105,257.039C545.133,257.039 545.161,257.04 545.189,257.04C545.21,257.04 545.23,257.039 545.25,257.039C545.25,257.047 545.25,257.055 545.25,257.062C545.25,257.077 545.25,257.092 545.25,257.107C545.25,257.387 545.225,257.66 545.177,257.926C545.13,257.66 545.104,257.387 545.104,257.107C545.104,257.092 545.105,257.078 545.105,257.063C545.105,257.055 545.105,257.047 545.105,257.039ZM554.275,257.039L554.291,257.039C554.291,257.047 554.291,257.055 554.292,257.063C554.292,257.078 554.292,257.092 554.292,257.107C554.292,257.201 554.289,257.295 554.283,257.387C554.278,257.295 554.275,257.201 554.275,257.107C554.275,257.092 554.275,257.078 554.275,257.063C554.275,257.055 554.275,257.047 554.275,257.039Z" style="fill:none;stroke:rgb(77,59,6);stroke-width:1.33px;"/>
            </g>
            <g transform="matrix(7.98704,0,0,8.69157,-1196.25,-1485.63)">
                <path d="M545.105,257.039L545.121,257.039C545.121,257.047 545.121,257.055 545.121,257.063C545.121,257.078 545.121,257.092 545.121,257.107C545.121,257.201 545.119,257.295 545.113,257.387C545.107,257.295 545.104,257.201 545.104,257.107C545.104,257.092 545.105,257.078 545.105,257.063C545.105,257.055 545.105,257.047 545.105,257.039Z" style="fill:none;stroke:rgb(77,59,6);stroke-width:1.33px;"/>
            </g>
        </g>
        <g transform="matrix(7.98704,0,0,8.69157,-2190.47,-1440.2)">
            <path d="M526.54,272.19L530.301,266.901C530.991,267.282 531.783,267.499 532.626,267.499C532.646,267.499 532.666,267.499 532.686,267.498C532.685,267.506 532.685,267.515 532.685,267.523C532.685,267.538 532.685,267.554 532.685,267.569C532.685,267.668 532.688,267.766 532.694,267.863C532.542,270.383 530.447,272.383 527.889,272.383C527.864,272.383 527.838,272.382 527.813,272.382C527.751,272.381 527.689,272.379 527.627,272.376C527.252,272.355 526.887,272.292 526.54,272.19Z" style="fill:none;stroke:rgb(77,59,6);stroke-width:1.39px;"/>
        </g>
        <g transform="matrix(7.98704,0,0,8.69157,-2190.47,-1440.2)">
            <path d="M532.702,267.498C535.271,267.458 537.355,265.401 537.437,262.842C537.519,265.426 539.643,267.499 542.247,267.499C542.269,267.499 542.29,267.499 542.312,267.498C542.312,267.498 542.312,267.554 542.312,267.569C542.312,270.226 540.155,272.383 537.498,272.383C537.479,272.383 537.459,272.382 537.439,272.382L537.434,272.382C534.906,272.349 532.845,270.362 532.694,267.863C532.7,267.766 532.703,267.668 532.703,267.569C532.703,267.554 532.703,267.538 532.703,267.523C532.702,267.515 532.702,267.506 532.702,267.498Z" style="fill:none;stroke:rgb(77,59,6);stroke-width:1.39px;"/>
        </g>
        <g transform="matrix(7.98704,0,0,8.69157,-2190.47,-1440.2)">
            <path d="M542.312,267.498C544.915,267.464 547.023,265.359 547.061,262.756C547.099,265.38 549.241,267.499 551.874,267.499C551.895,267.499 551.917,267.499 551.938,267.498C551.938,267.506 551.938,267.515 551.939,267.523C551.939,267.538 551.938,267.601 551.938,267.616C551.913,270.251 549.766,272.383 547.125,272.383C547.104,272.383 547.082,272.382 547.061,272.382C544.434,272.348 542.312,270.204 542.312,267.569C542.312,267.554 542.312,267.498 542.312,267.498Z" style="fill:none;stroke:rgb(77,59,6);stroke-width:1.39px;"/>
        </g>
        <g transform="matrix(7.98704,0,0,8.69157,-2190.47,-1440.2)">
            <path d="M551.939,267.523C551.939,267.515 551.939,267.506 551.94,267.498C554.527,267.464 556.624,265.384 556.687,262.803C556.725,265.427 558.868,267.546 561.501,267.546C561.522,267.546 561.543,267.546 561.565,267.545L561.565,267.57C561.565,267.585 561.565,267.601 561.565,267.616C561.565,270.273 559.408,272.43 556.751,272.43C556.73,272.43 556.709,272.429 556.687,272.429C554.06,272.395 551.938,270.251 551.938,267.616C551.938,267.601 551.938,267.585 551.938,267.569C551.938,267.554 551.939,267.538 551.939,267.523Z" style="fill:none;stroke:rgb(77,59,6);stroke-width:1.39px;"/>
        </g>
        <g transform="matrix(7.98704,0,0,8.69157,-2190.47,-1440.2)">
            <path d="M561.565,267.545C564.184,267.511 566.301,265.381 566.314,262.756C566.352,265.38 568.494,267.499 571.127,267.499C571.148,267.499 571.17,267.499 571.191,267.498C571.191,267.506 571.191,267.515 571.191,267.523C571.191,267.538 571.191,267.554 571.191,267.569C571.191,270.226 569.035,272.383 566.378,272.383C566.357,272.383 566.335,272.383 566.314,272.382C563.703,272.348 561.59,270.23 561.565,267.616C561.565,267.601 561.565,267.585 561.565,267.569L561.565,267.545Z" style="fill:none;stroke:rgb(77,59,6);stroke-width:1.39px;"/>
        </g>
        <g transform="matrix(7.98704,0,0,8.69157,-2190.47,-1440.2)">
            <path d="M571.191,267.498C573.795,267.464 575.902,265.359 575.941,262.756C575.979,265.38 578.121,267.499 580.754,267.499C580.775,267.499 580.796,267.499 580.818,267.498C580.818,267.506 580.818,267.515 580.818,267.523C580.818,267.538 580.818,267.601 580.818,267.616C580.793,270.251 578.645,272.383 576.005,272.383C575.983,272.383 575.962,272.382 575.941,272.382C573.314,272.348 571.191,270.204 571.191,267.569C571.191,267.554 571.191,267.538 571.191,267.523L571.191,267.498Z" style="fill:none;stroke:rgb(77,59,6);stroke-width:1.39px;"/>
        </g>
        <g transform="matrix(7.98704,0,0,8.69157,-2190.47,-1440.2)">
            <path d="M580.819,267.523C580.819,267.515 580.819,267.506 580.819,267.498C583.406,267.464 585.504,265.384 585.567,262.803C585.605,265.427 587.748,267.546 590.38,267.546C590.402,267.546 590.423,267.546 590.444,267.545L590.444,267.57C590.445,267.585 590.445,267.601 590.445,267.616C590.445,270.273 588.288,272.43 585.631,272.43C585.61,272.43 585.588,272.429 585.567,272.429C582.94,272.395 580.818,270.251 580.818,267.616C580.818,267.601 580.818,267.585 580.818,267.569C580.818,267.554 580.818,267.538 580.819,267.523Z" style="fill:none;stroke:rgb(77,59,6);stroke-width:1.39px;"/>
        </g>
        <g transform="matrix(7.98704,0,0,8.69157,-2190.47,-1440.2)">
            <path d="M590.444,267.545C593.064,267.511 595.181,265.381 595.194,262.756C595.232,265.38 597.374,267.499 600.007,267.499C600.028,267.499 600.05,267.499 600.071,267.498C600.071,267.506 600.071,267.515 600.071,267.523C600.071,267.538 600.071,267.554 600.071,267.569C600.071,270.226 597.914,272.383 595.258,272.383C595.236,272.383 595.215,272.383 595.194,272.382C592.582,272.348 590.47,270.23 590.445,267.616C590.445,267.601 590.445,267.585 590.444,267.569L590.444,267.545Z" style="fill:none;stroke:rgb(77,59,6);stroke-width:1.39px;"/>
        </g>
        <g transform="matrix(7.98704,0,0,8.69157,-2190.47,-1440.2)">
            <path d="M600.071,267.498C602.674,267.464 604.782,265.359 604.82,262.756C604.858,265.38 607.001,267.499 609.634,267.499C609.655,267.499 609.676,267.499 609.697,267.498C609.697,267.506 609.698,267.515 609.698,267.523C609.698,267.538 609.698,267.601 609.698,267.616C609.672,270.251 607.525,272.383 604.884,272.383C604.863,272.383 604.842,272.382 604.82,272.382C602.193,272.348 600.071,270.204 600.071,267.569C600.071,267.554 600.071,267.538 600.071,267.523L600.071,267.498Z" style="fill:none;stroke:rgb(77,59,6);stroke-width:1.39px;"/>
        </g>
        <g transform="matrix(7.98704,0,0,8.69157,-2190.47,-1440.2)">
            <path d="M609.698,267.523C609.698,267.515 609.699,267.506 609.699,267.498C612.286,267.464 614.384,265.384 614.447,262.803C614.485,265.427 616.627,267.546 619.26,267.546C619.281,267.546 619.303,267.546 619.324,267.545C619.324,267.553 619.324,267.562 619.324,267.57C619.324,267.585 619.324,267.601 619.324,267.616C619.324,270.273 617.168,272.43 614.511,272.43C614.489,272.43 614.468,272.429 614.447,272.429C611.82,272.395 609.698,270.251 609.698,267.616C609.698,267.601 609.698,267.585 609.698,267.569C609.698,267.554 609.698,267.538 609.698,267.523Z" style="fill:none;stroke:rgb(77,59,6);stroke-width:1.39px;"/>
        </g>
        <g transform="matrix(7.98704,0,0,8.69157,-2190.47,-1440.2)">
            <path d="M619.453,267.573C619.453,267.563 619.453,267.552 619.453,267.542C621.996,267.441 624.034,265.365 624.073,262.807C624.116,262.805 624.159,262.804 624.202,262.803C624.24,265.427 626.382,267.546 629.015,267.546C629.036,267.546 629.058,267.546 629.079,267.545C629.079,267.553 629.079,267.562 629.079,267.57C629.079,267.585 629.079,267.601 629.079,267.616C629.079,270.273 626.922,272.43 624.266,272.43C624.245,272.43 624.223,272.429 624.202,272.429C624.159,272.429 624.116,272.428 624.073,272.426C621.506,272.325 619.453,270.208 619.453,267.616C619.453,267.602 619.453,267.587 619.453,267.573Z" style="fill:none;stroke:rgb(77,59,6);stroke-width:1.39px;"/>
        </g>
        <g transform="matrix(7.98704,0,0,8.69157,-2190.47,-1440.2)">
            <path d="M629.079,267.545C631.682,267.511 633.79,265.406 633.829,262.803C633.867,265.427 636.009,267.546 638.642,267.546C638.663,267.546 638.684,267.546 638.705,267.545C638.705,267.553 638.706,267.562 638.706,267.57C638.706,267.585 638.706,267.648 638.706,267.663C638.68,270.298 636.533,272.43 633.892,272.43C633.871,272.43 633.85,272.429 633.828,272.429C631.201,272.395 629.079,270.251 629.079,267.616C629.079,267.601 629.079,267.585 629.079,267.57L629.079,267.545Z" style="fill:none;stroke:rgb(77,59,6);stroke-width:1.39px;"/>
        </g>
        <g transform="matrix(7.98704,0,0,8.69157,-2190.47,-1440.2)">
            <path d="M638.706,267.57C638.707,267.562 638.707,267.553 638.707,267.545C641.294,267.511 643.392,265.431 643.455,262.85C643.493,265.474 645.635,267.593 648.268,267.593C648.289,267.593 648.311,267.593 648.332,267.592C648.332,267.601 648.332,267.609 648.332,267.617C648.332,267.632 648.332,267.648 648.332,267.663C648.332,270.32 646.176,272.477 643.519,272.477C643.498,272.477 643.476,272.477 643.455,272.476C640.828,272.442 638.706,270.298 638.706,267.663C638.706,267.648 638.706,267.632 638.706,267.616C638.706,267.601 638.706,267.585 638.706,267.57Z" style="fill:none;stroke:rgb(77,59,6);stroke-width:1.39px;"/>
        </g>
        <g transform="matrix(7.98704,0,0,8.69157,-2190.47,-1440.2)">
            <path d="M648.332,267.592C650.936,267.558 653.043,265.453 653.082,262.85C653.119,265.445 655.214,267.545 657.806,267.592C657.806,267.6 657.806,267.609 657.806,267.617C657.806,267.633 657.806,267.648 657.806,267.663C657.806,267.956 657.832,268.243 657.882,268.522C657.477,270.769 655.509,272.477 653.146,272.477C653.124,272.477 653.103,272.477 653.082,272.476C650.455,272.442 648.332,270.298 648.332,267.663C648.332,267.648 648.332,267.632 648.332,267.617C648.332,267.609 648.332,267.601 648.332,267.592Z" style="fill:none;stroke:rgb(77,59,6);stroke-width:1.39px;"/>
        </g>
        <g transform="matrix(7.98704,0,0,8.69157,-2190.47,-1440.2)">
            <path d="M657.958,267.592C660.562,267.559 662.67,265.453 662.708,262.851C662.746,265.439 664.831,267.536 667.415,267.592C667.415,267.6 667.415,267.609 667.415,267.617C667.415,267.633 667.415,267.648 667.415,267.663C667.415,267.762 667.418,267.86 667.424,267.957C667.273,270.448 665.226,272.43 662.708,272.476C662.679,272.476 662.649,272.477 662.619,272.477C660.256,272.477 658.288,270.769 657.882,268.522C657.933,268.243 657.959,267.956 657.959,267.663C657.959,267.648 657.959,267.632 657.959,267.617C657.959,267.609 657.959,267.601 657.958,267.592Z" style="fill:none;stroke:rgb(77,59,6);stroke-width:1.39px;"/>
        </g>
        <g transform="matrix(7.98704,0,0,8.69157,-2190.47,-1440.2)">
            <path d="M667.432,267.592C667.462,267.593 667.492,267.593 667.521,267.593C668.344,267.593 669.119,267.386 669.796,267.021L673.546,272.294C673.175,272.399 672.786,272.461 672.385,272.474C672.368,272.475 672.351,272.475 672.334,272.475C672.299,272.476 672.264,272.477 672.228,272.477C669.67,272.477 667.576,270.477 667.424,267.957C667.43,267.86 667.433,267.762 667.433,267.663C667.433,267.648 667.432,267.633 667.432,267.617C667.432,267.609 667.432,267.6 667.432,267.592Z" style="fill:none;stroke:rgb(77,59,6);stroke-width:1.39px;"/>
        </g>
        <g transform="matrix(1.04781,0,0,1.04781,-130.363,58.9149)">
            <g>
                <g transform="matrix(7.98704,0,0,8.69157,-2223.24,-1486.41)">
                    <path d="M545.105,257.151C545.105,257.137 545.109,257.137 545.109,257.151C545.109,257.159 545.109,257.167 545.109,257.175C545.108,257.202 545.108,257.229 545.107,257.256C545.106,257.229 545.105,257.202 545.105,257.175C545.105,257.167 545.105,257.159 545.105,257.151Z" style="fill:none;stroke:rgb(77,59,6);stroke-width:1.33px;"/>
                </g>
                <g transform="matrix(7.98704,0,0,8.69157,-2296.58,-1486.41)">
                    <path d="M554.287,257.151C554.287,257.137 554.292,257.137 554.292,257.151C554.291,257.159 554.291,257.167 554.291,257.175C554.291,257.202 554.29,257.229 554.289,257.256C554.289,257.229 554.288,257.202 554.288,257.175C554.287,257.167 554.287,257.159 554.287,257.151Z" style="fill:none;stroke:rgb(77,59,6);stroke-width:1.33px;"/>
                </g>
                <g transform="matrix(7.98704,0,0,8.69157,-1341.71,-1485.63)">
                    <path d="M549.686,253.378C549.638,253.112 549.613,252.838 549.613,252.558C549.613,252.543 549.613,252.529 549.614,252.514C549.642,252.514 549.67,252.513 549.698,252.513C549.718,252.513 549.739,252.513 549.759,252.514C549.759,252.528 549.759,252.543 549.759,252.558C549.759,252.838 549.734,253.112 549.686,253.378Z" style="fill:none;stroke:rgb(77,59,6);stroke-width:1.33px;"/>
                </g>
            </g>
        </g>
        <g>
            <g transform="matrix(7.98704,0,0,8.69157,-2190.47,-1440.2)">
                <path d="M530.301,266.901L534.198,261.421C535.045,262.221 536.183,262.716 537.434,262.732C537.434,262.74 537.435,262.748 537.435,262.756C537.435,262.785 537.436,262.813 537.437,262.842C537.355,265.401 535.271,267.458 532.702,267.498L532.686,267.498C532.666,267.499 532.646,267.499 532.626,267.499C531.783,267.499 530.991,267.282 530.301,266.901Z" style="fill:none;stroke:rgb(77,59,6);stroke-width:1.39px;"/>
            </g>
            <g transform="matrix(7.98704,0,0,8.69157,-2190.47,-1440.2)">
                <path d="M537.439,262.732C537.459,262.732 537.479,262.732 537.498,262.732C540.155,262.732 542.312,260.576 542.312,257.919C542.312,260.554 544.434,262.698 547.061,262.732C547.061,262.74 547.061,262.748 547.061,262.756C547.023,265.359 544.915,267.464 542.312,267.498C542.312,267.498 542.311,267.498 542.311,267.498C542.29,267.499 542.269,267.499 542.247,267.499C539.643,267.499 537.519,265.426 537.437,262.842C537.438,262.813 537.438,262.785 537.439,262.756C537.439,262.748 537.439,262.74 537.439,262.732Z" style="fill:none;stroke:rgb(77,59,6);stroke-width:1.39px;"/>
            </g>
            <g transform="matrix(7.98704,0,0,8.69157,-2190.47,-1440.2)">
                <path d="M547.061,262.732C547.082,262.732 547.103,262.732 547.125,262.732C549.766,262.732 551.913,260.601 551.938,257.966C551.938,260.601 554.06,262.745 556.687,262.779C556.687,262.787 556.687,262.795 556.687,262.803C556.624,265.384 554.527,267.464 551.94,267.498C551.939,267.498 551.938,267.498 551.938,267.498C551.917,267.499 551.895,267.499 551.874,267.499C549.241,267.499 547.099,265.38 547.061,262.756C547.061,262.748 547.061,262.74 547.061,262.732Z" style="fill:none;stroke:rgb(77,59,6);stroke-width:1.39px;"/>
            </g>
            <g transform="matrix(7.98704,0,0,8.69157,-2190.47,-1440.2)">
                <path d="M556.687,262.779C556.709,262.779 556.73,262.78 556.751,262.78C559.408,262.78 561.565,260.623 561.565,257.966C561.59,260.58 563.703,262.698 566.314,262.732C566.314,262.74 566.314,262.748 566.314,262.756C566.301,265.381 564.184,267.511 561.565,267.545C561.543,267.546 561.522,267.546 561.501,267.546C558.868,267.546 556.725,265.427 556.687,262.803C556.687,262.795 556.687,262.787 556.687,262.779Z" style="fill:none;stroke:rgb(77,59,6);stroke-width:1.39px;"/>
            </g>
            <g transform="matrix(7.98704,0,0,8.69157,-2190.47,-1440.2)">
                <path d="M566.314,262.732C566.335,262.732 566.357,262.732 566.378,262.732C569.035,262.732 571.191,260.576 571.191,257.919C571.191,260.554 573.314,262.698 575.941,262.732C575.941,262.74 575.941,262.748 575.941,262.756C575.902,265.359 573.795,267.464 571.192,267.498C571.192,267.498 571.191,267.498 571.191,267.498C571.17,267.499 571.148,267.499 571.127,267.499C568.494,267.499 566.352,265.38 566.314,262.756L566.314,262.732Z" style="fill:none;stroke:rgb(77,59,6);stroke-width:1.39px;"/>
            </g>
            <g transform="matrix(7.98704,0,0,8.69157,-2190.47,-1440.2)">
                <path d="M575.941,262.732C575.962,262.732 575.983,262.732 576.005,262.732C578.645,262.732 580.793,260.601 580.818,257.966C580.818,260.601 582.94,262.745 585.567,262.779C585.567,262.787 585.567,262.795 585.567,262.803C585.504,265.384 583.406,267.464 580.819,267.498C580.819,267.498 580.818,267.498 580.818,267.498C580.796,267.499 580.775,267.499 580.754,267.499C578.121,267.499 575.979,265.38 575.941,262.756C575.941,262.748 575.941,262.74 575.941,262.732Z" style="fill:none;stroke:rgb(77,59,6);stroke-width:1.39px;"/>
            </g>
            <g transform="matrix(7.98704,0,0,8.69157,-2190.47,-1440.2)">
                <path d="M585.567,262.779C585.588,262.779 585.61,262.78 585.631,262.78C588.288,262.78 590.445,260.623 590.445,257.966C590.47,260.58 592.582,262.698 595.194,262.732C595.194,262.74 595.194,262.748 595.194,262.756C595.181,265.381 593.064,267.511 590.444,267.545C590.423,267.546 590.402,267.546 590.38,267.546C587.748,267.546 585.605,265.427 585.567,262.803C585.567,262.795 585.567,262.787 585.567,262.779Z" style="fill:none;stroke:rgb(77,59,6);stroke-width:1.39px;"/>
            </g>
            <g transform="matrix(7.98704,0,0,8.69157,-2190.47,-1440.2)">
                <path d="M595.194,262.732C595.215,262.732 595.236,262.732 595.258,262.732C597.914,262.732 600.071,260.576 600.071,257.919C600.071,260.554 602.193,262.698 604.82,262.732C604.82,262.74 604.82,262.748 604.82,262.756C604.782,265.359 602.675,267.464 600.072,267.498C600.071,267.498 600.071,267.498 600.071,267.498C600.049,267.499 600.028,267.499 600.007,267.499C597.374,267.499 595.232,265.38 595.194,262.756L595.194,262.732Z" style="fill:none;stroke:rgb(77,59,6);stroke-width:1.39px;"/>
            </g>
            <g transform="matrix(7.98704,0,0,8.69157,-2190.47,-1440.2)">
                <path d="M604.82,262.732C604.842,262.732 604.863,262.732 604.884,262.732C607.525,262.732 609.672,260.601 609.698,257.966C609.698,260.601 611.82,262.745 614.447,262.779C614.447,262.787 614.447,262.795 614.447,262.803C614.384,265.384 612.286,267.464 609.699,267.498C609.698,267.498 609.698,267.498 609.697,267.498C609.676,267.499 609.655,267.499 609.634,267.499C607.001,267.499 604.858,265.38 604.82,262.756C604.82,262.748 604.82,262.74 604.82,262.732Z" style="fill:none;stroke:rgb(77,59,6);stroke-width:1.39px;"/>
            </g>
            <g transform="matrix(7.98704,0,0,8.69157,-2190.47,-1440.2)">
                <path d="M614.447,262.779C614.468,262.779 614.489,262.78 614.511,262.78C617.168,262.78 619.324,260.623 619.324,257.966C619.324,257.951 619.324,257.935 619.324,257.92C619.367,257.92 619.41,257.921 619.453,257.923C619.453,257.937 619.453,257.952 619.453,257.966C619.453,260.558 621.506,262.674 624.073,262.776C624.073,262.786 624.073,262.796 624.073,262.807C624.034,265.365 621.996,267.441 619.453,267.542C619.41,267.544 619.367,267.545 619.324,267.545C619.303,267.546 619.281,267.546 619.26,267.546C616.627,267.546 614.485,265.427 614.447,262.803C614.447,262.795 614.447,262.787 614.447,262.779Z" style="fill:none;stroke:rgb(77,59,6);stroke-width:1.39px;"/>
            </g>
            <g transform="matrix(7.98704,0,0,8.69157,-2190.47,-1440.2)">
                <path d="M624.202,262.803C624.202,262.795 624.202,262.787 624.202,262.779C624.223,262.779 624.245,262.78 624.266,262.78C626.922,262.78 629.079,260.623 629.079,257.966C629.079,260.601 631.201,262.745 633.828,262.779C633.828,262.787 633.828,262.795 633.828,262.803C633.79,265.406 631.683,267.511 629.08,267.545C629.079,267.545 629.079,267.545 629.079,267.545C629.057,267.546 629.036,267.546 629.015,267.546C626.382,267.546 624.24,265.427 624.202,262.803Z" style="fill:none;stroke:rgb(77,59,6);stroke-width:1.39px;"/>
            </g>
            <g transform="matrix(7.98704,0,0,8.69157,-2190.47,-1440.2)">
                <path d="M633.828,262.779C633.85,262.779 633.871,262.78 633.892,262.78C636.533,262.78 638.68,260.648 638.706,258.013C638.706,260.648 640.828,262.792 643.455,262.826C643.455,262.834 643.455,262.842 643.455,262.85C643.392,265.431 641.294,267.511 638.707,267.545C638.707,267.545 638.706,267.545 638.705,267.545C638.684,267.546 638.663,267.546 638.642,267.546C636.009,267.546 633.867,265.427 633.829,262.803C633.829,262.795 633.828,262.787 633.828,262.779Z" style="fill:none;stroke:rgb(77,59,6);stroke-width:1.39px;"/>
            </g>
            <g transform="matrix(7.98704,0,0,8.69157,-2190.47,-1440.2)">
                <path d="M643.455,262.826C643.476,262.826 643.498,262.827 643.519,262.827C646.176,262.827 648.332,260.67 648.332,258.013C648.332,260.648 650.455,262.792 653.082,262.826C653.082,262.834 653.082,262.842 653.082,262.85C653.043,265.453 650.936,267.558 648.333,267.592C648.333,267.592 648.332,267.592 648.332,267.592C648.311,267.593 648.289,267.593 648.268,267.593C645.635,267.593 643.493,265.474 643.455,262.85C643.455,262.842 643.455,262.834 643.455,262.826Z" style="fill:none;stroke:rgb(77,59,6);stroke-width:1.39px;"/>
            </g>
            <g transform="matrix(7.98704,0,0,8.69157,-2190.47,-1440.2)">
                <path d="M653.082,262.826C653.103,262.826 653.124,262.827 653.146,262.827C655.509,262.827 657.477,261.119 657.882,258.872C658.288,261.119 660.256,262.827 662.619,262.827C662.649,262.827 662.679,262.826 662.708,262.826C662.708,262.834 662.708,262.842 662.708,262.851C662.67,265.453 660.562,267.559 657.958,267.592C657.937,267.593 657.916,267.593 657.895,267.593C657.865,267.593 657.836,267.593 657.806,267.592C655.214,267.545 653.119,265.445 653.082,262.85C653.082,262.842 653.082,262.834 653.082,262.826Z" style="fill:none;stroke:rgb(77,59,6);stroke-width:1.39px;"/>
            </g>
            <g transform="matrix(7.98704,0,0,8.69157,-2190.47,-1440.2)">
                <path d="M662.708,262.826C663.939,262.803 665.057,262.318 665.896,261.537L669.796,267.021C669.119,267.386 668.344,267.593 667.521,267.593C667.492,267.593 667.462,267.593 667.432,267.592L667.415,267.592C664.831,267.536 662.746,265.439 662.708,262.851L662.708,262.826Z" style="fill:none;stroke:rgb(77,59,6);stroke-width:1.39px;"/>
            </g>
        </g>
        <g>
            <g transform="matrix(7.98704,0,0,8.69157,-2190.47,-1440.2)">
                <path d="M534.198,261.421L538.086,255.954C538.966,257.108 540.355,257.854 541.917,257.854C542.05,257.854 542.181,257.848 542.311,257.838C542.311,257.849 542.311,257.861 542.312,257.873C542.312,257.888 542.312,257.904 542.312,257.919C542.312,260.576 540.155,262.732 537.498,262.732C537.479,262.732 537.454,262.735 537.434,262.732C536.183,262.716 535.045,262.221 534.198,261.421Z" style="fill:none;stroke:rgb(77,59,6);stroke-width:1.39px;"/>
            </g>
            <g transform="matrix(7.98704,0,0,8.69157,-2190.47,-1440.2)">
                <path d="M542.311,257.838C544.757,257.639 546.689,255.608 546.731,253.122C546.774,255.741 548.914,257.854 551.544,257.854C551.676,257.854 551.808,257.848 551.938,257.838C551.938,257.849 551.938,257.861 551.939,257.873C551.939,257.888 551.938,257.951 551.938,257.966C551.913,260.601 549.766,262.732 547.125,262.732C547.103,262.732 547.082,262.732 547.061,262.732C544.434,262.698 542.312,260.554 542.312,257.919C542.312,257.904 542.312,257.888 542.312,257.873C542.312,257.861 542.312,257.849 542.311,257.838Z" style="fill:none;stroke:rgb(77,59,6);stroke-width:1.39px;"/>
            </g>
            <g transform="matrix(7.98704,0,0,8.69157,-2190.47,-1440.2)">
                <path d="M551.939,257.873C551.939,257.861 551.94,257.849 551.94,257.838C554.369,257.639 556.291,255.634 556.356,253.169L556.358,253.169C556.401,255.788 558.541,257.901 561.17,257.901C561.303,257.901 561.435,257.895 561.565,257.885C561.565,257.896 561.565,257.908 561.565,257.919C561.565,257.935 561.565,257.951 561.565,257.966C561.565,260.623 559.408,262.78 556.751,262.78C556.73,262.78 556.709,262.779 556.687,262.779C554.06,262.745 551.938,260.601 551.938,257.966C551.938,257.951 551.938,257.935 551.938,257.919C551.938,257.904 551.939,257.888 551.939,257.873Z" style="fill:none;stroke:rgb(77,59,6);stroke-width:1.39px;"/>
            </g>
            <g transform="matrix(7.98704,0,0,8.69157,-2190.47,-1440.2)">
                <path d="M561.565,257.885C564.026,257.685 565.966,255.63 565.984,253.122C566.028,255.741 568.168,257.854 570.797,257.854C570.93,257.854 571.061,257.848 571.191,257.838C571.191,257.849 571.191,257.861 571.191,257.873C571.191,257.888 571.191,257.904 571.191,257.919C571.191,260.576 569.035,262.732 566.378,262.732C566.357,262.732 566.335,262.732 566.314,262.732C563.703,262.698 561.59,260.58 561.565,257.966C561.565,257.951 561.565,257.935 561.565,257.919C561.565,257.908 561.565,257.896 561.565,257.885Z" style="fill:none;stroke:rgb(77,59,6);stroke-width:1.39px;"/>
            </g>
            <g transform="matrix(7.98704,0,0,8.69157,-2190.47,-1440.2)">
                <path d="M571.191,257.838C573.637,257.639 575.569,255.608 575.611,253.122C575.654,255.741 577.794,257.854 580.424,257.854C580.556,257.854 580.687,257.848 580.817,257.838C580.818,257.849 580.818,257.861 580.818,257.873C580.818,257.888 580.818,257.951 580.818,257.966C580.793,260.601 578.645,262.732 576.005,262.732C575.983,262.732 575.962,262.732 575.941,262.732C573.314,262.698 571.191,260.554 571.191,257.919C571.191,257.904 571.191,257.888 571.191,257.873C571.191,257.861 571.191,257.849 571.191,257.838Z" style="fill:none;stroke:rgb(77,59,6);stroke-width:1.39px;"/>
            </g>
            <g transform="matrix(7.98704,0,0,8.69157,-2190.47,-1440.2)">
                <path d="M580.819,257.873C580.819,257.861 580.819,257.849 580.82,257.838C583.249,257.639 585.17,255.634 585.235,253.169L585.237,253.169C585.281,255.788 587.421,257.901 590.05,257.901C590.183,257.901 590.314,257.895 590.444,257.885C590.444,257.896 590.444,257.908 590.444,257.919C590.445,257.935 590.445,257.951 590.445,257.966C590.445,260.623 588.288,262.78 585.631,262.78C585.61,262.78 585.588,262.779 585.567,262.779C582.94,262.745 580.818,260.601 580.818,257.966C580.818,257.951 580.818,257.935 580.818,257.919C580.818,257.904 580.818,257.888 580.819,257.873Z" style="fill:none;stroke:rgb(77,59,6);stroke-width:1.39px;"/>
            </g>
            <g transform="matrix(7.98704,0,0,8.69157,-2190.47,-1440.2)">
                <path d="M590.444,257.885C592.906,257.685 594.846,255.63 594.864,253.122C594.907,255.741 597.047,257.854 599.677,257.854C599.809,257.854 599.941,257.848 600.071,257.838C600.071,257.849 600.071,257.861 600.071,257.873C600.071,257.888 600.071,257.904 600.071,257.919C600.071,260.576 597.914,262.732 595.258,262.732C595.236,262.732 595.215,262.732 595.194,262.732C592.582,262.698 590.47,260.58 590.445,257.966C590.445,257.951 590.445,257.935 590.444,257.919C590.444,257.908 590.444,257.896 590.444,257.885Z" style="fill:none;stroke:rgb(77,59,6);stroke-width:1.39px;"/>
            </g>
            <g transform="matrix(7.98704,0,0,8.69157,-2190.47,-1440.2)">
                <path d="M600.071,257.838C602.517,257.639 604.449,255.608 604.49,253.122C604.534,255.741 606.674,257.854 609.303,257.854C609.436,257.854 609.567,257.848 609.697,257.838C609.697,257.849 609.697,257.861 609.698,257.873C609.698,257.888 609.698,257.951 609.698,257.966C609.672,260.601 607.525,262.732 604.884,262.732C604.863,262.732 604.842,262.732 604.82,262.732C602.193,262.698 600.071,260.554 600.071,257.919C600.071,257.904 600.071,257.888 600.071,257.873C600.071,257.861 600.071,257.849 600.071,257.838Z" style="fill:none;stroke:rgb(77,59,6);stroke-width:1.39px;"/>
            </g>
            <g transform="matrix(7.98704,0,0,8.69157,-2190.47,-1440.2)">
                <path d="M609.698,257.873C609.699,257.861 609.699,257.849 609.699,257.838C612.129,257.639 614.05,255.634 614.115,253.169L614.117,253.169C614.161,255.788 616.301,257.901 618.93,257.901C619.062,257.901 619.194,257.895 619.324,257.885C619.324,257.896 619.324,257.908 619.324,257.92C619.324,257.935 619.324,257.951 619.324,257.966C619.324,260.623 617.168,262.78 614.511,262.78C614.489,262.78 614.468,262.779 614.447,262.779C611.82,262.745 609.698,260.601 609.698,257.966C609.698,257.951 609.698,257.935 609.698,257.919C609.698,257.904 609.698,257.888 609.698,257.873Z" style="fill:none;stroke:rgb(77,59,6);stroke-width:1.39px;"/>
            </g>
            <g transform="matrix(7.98704,0,0,8.69157,-2190.47,-1440.2)">
                <path d="M619.453,257.923C619.453,257.906 619.453,257.889 619.454,257.873C621.834,257.615 623.696,255.618 623.742,253.181C623.785,253.176 623.829,253.172 623.872,253.169C623.916,255.788 626.055,257.901 628.685,257.901C628.817,257.901 628.949,257.895 629.079,257.885C629.079,257.896 629.079,257.908 629.079,257.92C629.079,257.935 629.079,257.951 629.079,257.966C629.079,260.623 626.922,262.78 624.266,262.78C624.245,262.78 624.223,262.779 624.202,262.779C624.159,262.779 624.116,262.777 624.073,262.776C621.506,262.674 619.453,260.558 619.453,257.966C619.453,257.952 619.453,257.937 619.453,257.923Z" style="fill:none;stroke:rgb(77,59,6);stroke-width:1.39px;"/>
            </g>
            <g transform="matrix(7.98704,0,0,8.69157,-2190.47,-1440.2)">
                <path d="M629.079,257.885C631.525,257.686 633.457,255.655 633.498,253.169C633.542,255.788 635.682,257.901 638.311,257.901C638.444,257.901 638.575,257.895 638.705,257.885C638.705,257.896 638.706,257.908 638.706,257.92C638.706,257.935 638.706,257.998 638.706,258.013C638.68,260.648 636.533,262.78 633.892,262.78C633.871,262.78 633.85,262.779 633.828,262.779C631.201,262.745 629.079,260.601 629.079,257.966C629.079,257.951 629.079,257.896 629.079,257.885Z" style="fill:none;stroke:rgb(77,59,6);stroke-width:1.39px;"/>
            </g>
            <g transform="matrix(7.98704,0,0,8.69157,-2190.47,-1440.2)">
                <path d="M638.706,257.92C638.707,257.908 638.707,257.896 638.707,257.885C641.137,257.686 643.058,255.681 643.123,253.216L643.125,253.216C643.169,255.835 645.309,257.948 647.938,257.948C648.071,257.948 648.202,257.942 648.332,257.932C648.332,257.943 648.332,257.955 648.332,257.967C648.332,257.982 648.332,257.998 648.332,258.013C648.332,260.67 646.176,262.827 643.519,262.827C643.498,262.827 643.476,262.826 643.455,262.826C640.828,262.792 638.706,260.648 638.706,258.013C638.706,257.998 638.706,257.982 638.706,257.966C638.706,257.951 638.706,257.935 638.706,257.92Z" style="fill:none;stroke:rgb(77,59,6);stroke-width:1.39px;"/>
            </g>
            <g transform="matrix(7.98704,0,0,8.69157,-2190.47,-1440.2)">
                <path d="M648.332,257.932C650.778,257.733 652.71,255.702 652.751,253.216C652.795,255.835 654.935,257.948 657.565,257.948C657.646,257.948 657.726,257.946 657.806,257.942C657.806,257.95 657.806,257.959 657.806,257.967C657.806,257.982 657.806,257.998 657.806,258.013C657.806,258.306 657.832,258.593 657.882,258.872C657.477,261.119 655.509,262.827 653.146,262.827C653.124,262.827 653.103,262.826 653.082,262.826C650.455,262.792 648.332,260.648 648.332,258.013C648.332,257.998 648.332,257.982 648.332,257.967C648.332,257.955 648.332,257.943 648.332,257.932Z" style="fill:none;stroke:rgb(77,59,6);stroke-width:1.39px;"/>
            </g>
            <g transform="matrix(7.98704,0,0,8.69157,-2190.47,-1440.2)">
                <path d="M657.958,257.932C659.541,257.803 660.908,256.908 661.687,255.619L665.896,261.537C665.057,262.318 663.939,262.803 662.708,262.826C662.679,262.826 662.649,262.827 662.619,262.827C660.256,262.827 658.288,261.119 657.882,258.872C657.933,258.593 657.959,258.306 657.959,258.013C657.959,257.998 657.959,257.982 657.959,257.967C657.959,257.955 657.958,257.943 657.958,257.932Z" style="fill:none;stroke:rgb(77,59,6);stroke-width:1.39px;"/>
            </g>
        </g>
        <g transform="matrix(1.04781,0,0,1.04781,-133.001,-24.9158)">
            <g transform="matrix(7.62257,0,0,8.29495,-1963.58,-1350.7)">
                <path d="M565.984,253.04C565.984,252.608 566.041,252.189 566.148,251.791L575.446,251.791C575.553,252.189 575.61,252.608 575.61,253.04C575.61,253.068 575.61,253.095 575.61,253.122C575.568,255.608 573.637,257.639 571.192,257.838C571.192,257.838 571.191,257.838 571.191,257.838C571.061,257.848 570.93,257.854 570.797,257.854C568.168,257.854 566.028,255.741 565.984,253.122C565.984,253.11 565.984,253.099 565.984,253.087L565.984,253.04Z" style="fill:none;stroke:rgb(77,59,6);stroke-width:1.39px;"/>
            </g>
            <g transform="matrix(7.62257,0,0,8.29495,-1963.58,-1350.7)">
                <path d="M575.611,253.122C575.61,253.095 575.61,253.068 575.61,253.04C575.61,252.608 575.667,252.189 575.774,251.791L585.073,251.791C585.18,252.189 585.237,252.608 585.237,253.04L585.237,253.087C585.236,253.115 585.236,253.142 585.235,253.169C585.17,255.634 583.249,257.639 580.82,257.838C580.819,257.838 580.818,257.838 580.817,257.838C580.687,257.848 580.556,257.854 580.424,257.854C577.794,257.854 575.654,255.741 575.611,253.122Z" style="fill:none;stroke:rgb(77,59,6);stroke-width:1.39px;"/>
            </g>
            <g transform="matrix(7.62257,0,0,8.29495,-1963.58,-1350.7)">
                <path d="M585.237,253.04C585.241,252.608 585.302,252.189 585.414,251.791L594.687,251.791C594.798,252.189 594.859,252.608 594.863,253.04C594.863,253.056 594.864,253.11 594.864,253.122C594.846,255.63 592.906,257.685 590.444,257.885C590.314,257.895 590.183,257.901 590.05,257.901C587.421,257.901 585.281,255.788 585.237,253.169C585.237,253.142 585.237,253.115 585.237,253.087L585.237,253.04Z" style="fill:none;stroke:rgb(77,59,6);stroke-width:1.39px;"/>
            </g>
            <g transform="matrix(7.62257,0,0,8.29495,-1963.58,-1350.7)">
                <path d="M594.863,253.04C594.863,252.608 594.92,252.189 595.027,251.791L604.326,251.791C604.433,252.189 604.49,252.608 604.49,253.04C604.49,253.068 604.49,253.095 604.489,253.122C604.448,255.608 602.517,257.639 600.072,257.838C600.071,257.838 600.071,257.838 600.07,257.838C599.941,257.848 599.809,257.854 599.677,257.854C597.047,257.854 594.907,255.741 594.864,253.122C594.864,253.11 594.864,253.099 594.864,253.087C594.863,253.072 594.863,253.056 594.863,253.04Z" style="fill:none;stroke:rgb(77,59,6);stroke-width:1.39px;"/>
            </g>
            <g transform="matrix(7.62257,0,0,8.29495,-1963.58,-1350.7)">
                <path d="M604.49,253.04C604.49,252.608 604.547,252.189 604.654,251.791L613.953,251.791C614.06,252.189 614.117,252.608 614.117,253.04L614.116,253.087C614.116,253.115 614.116,253.142 614.115,253.169C614.05,255.634 612.129,257.639 609.699,257.838C609.699,257.838 609.698,257.838 609.697,257.838C609.567,257.848 609.436,257.854 609.303,257.854C606.674,257.854 604.534,255.741 604.491,253.122C604.49,253.095 604.49,253.068 604.49,253.04Z" style="fill:none;stroke:rgb(77,59,6);stroke-width:1.39px;"/>
            </g>
            <g transform="matrix(7.62257,0,0,8.29495,-1963.58,-1350.7)">
                <path d="M614.117,253.04C614.121,252.608 614.182,252.189 614.293,251.791L623.566,251.791C623.682,252.203 623.743,252.638 623.743,253.087C623.743,253.119 623.743,253.15 623.742,253.181C623.696,255.618 621.834,257.615 619.454,257.873C619.41,257.877 619.367,257.881 619.324,257.885C619.194,257.895 619.062,257.901 618.93,257.901C616.301,257.901 614.161,255.788 614.117,253.169C614.117,253.142 614.116,253.115 614.116,253.087L614.117,253.04Z" style="fill:none;stroke:rgb(77,59,6);stroke-width:1.39px;"/>
            </g>
            <g transform="matrix(7.62257,0,0,8.29495,-1963.58,-1350.7)">
                <path d="M623.872,253.169C623.872,253.142 623.872,253.115 623.872,253.087C623.872,252.638 623.933,252.203 624.049,251.791L633.321,251.791C633.436,252.203 633.498,252.638 633.498,253.087C633.498,253.115 633.498,253.142 633.497,253.169C633.456,255.655 631.525,257.686 629.08,257.885C629.079,257.885 629.079,257.885 629.079,257.885C628.949,257.895 628.817,257.901 628.685,257.901C626.055,257.901 623.916,255.788 623.872,253.169Z" style="fill:none;stroke:rgb(77,59,6);stroke-width:1.39px;"/>
            </g>
            <g transform="matrix(7.62257,0,0,8.29495,-1963.58,-1350.7)">
                <path d="M633.498,253.087C633.498,252.638 633.56,252.203 633.675,251.791L642.948,251.791C643.063,252.203 643.125,252.638 643.125,253.087L643.125,253.134C643.124,253.162 643.124,253.189 643.123,253.216C643.058,255.681 641.137,257.686 638.707,257.885C638.707,257.885 638.706,257.885 638.705,257.885C638.575,257.895 638.444,257.901 638.311,257.901C635.682,257.901 633.542,255.788 633.499,253.169C633.498,253.142 633.498,253.115 633.498,253.087Z" style="fill:none;stroke:rgb(77,59,6);stroke-width:1.39px;"/>
            </g>
            <g transform="matrix(7.62257,0,0,8.29495,-1963.58,-1350.7)">
                <path d="M643.125,253.087C643.129,252.638 643.195,252.203 643.315,251.791L652.561,251.791C652.685,252.217 652.751,252.668 652.751,253.134C652.751,253.162 652.751,253.189 652.751,253.216C652.709,255.702 650.778,257.733 648.333,257.932C648.333,257.932 648.332,257.932 648.332,257.932C648.202,257.942 648.071,257.948 647.938,257.948C645.309,257.948 643.169,255.835 643.125,253.216C643.125,253.189 643.125,253.162 643.125,253.134L643.125,253.087Z" style="fill:none;stroke:rgb(77,59,6);stroke-width:1.39px;"/>
            </g>
            <g transform="matrix(7.62257,0,0,8.29495,-1963.58,-1350.7)">
                <path d="M652.751,253.134C652.751,252.668 652.818,252.217 652.942,251.791L658.965,251.791L661.687,255.619C660.908,256.908 659.541,257.803 657.958,257.932C657.908,257.936 657.857,257.939 657.806,257.942C657.726,257.946 657.646,257.948 657.565,257.948C654.935,257.948 652.795,255.835 652.751,253.216L652.751,253.134Z" style="fill:none;stroke:rgb(77,59,6);stroke-width:1.39px;"/>
            </g>
            <g transform="matrix(7.62257,0,0,8.29495,-1963.58,-1350.7)">
                <path d="M538.086,255.954L541.047,251.791L546.566,251.791C546.673,252.189 546.731,252.608 546.731,253.04C546.731,253.068 546.73,253.095 546.73,253.122C546.688,255.608 544.758,257.639 542.312,257.838C542.312,257.838 542.311,257.838 542.311,257.838C542.181,257.848 542.05,257.854 541.917,257.854C540.355,257.854 538.966,257.108 538.086,255.954Z" style="fill:none;stroke:rgb(77,59,6);stroke-width:1.39px;"/>
            </g>
            <g transform="matrix(7.62257,0,0,8.29495,-1963.58,-1350.7)">
                <path d="M546.731,253.04C546.731,252.608 546.788,252.189 546.895,251.791L556.193,251.791C556.3,252.189 556.357,252.608 556.357,253.04L556.357,253.087C556.357,253.115 556.356,253.142 556.356,253.169C556.291,255.634 554.369,257.639 551.94,257.838C551.939,257.838 551.938,257.838 551.938,257.838C551.808,257.848 551.676,257.854 551.544,257.854C548.914,257.854 546.775,255.741 546.731,253.122C546.731,253.095 546.731,253.068 546.731,253.04Z" style="fill:none;stroke:rgb(77,59,6);stroke-width:1.39px;"/>
            </g>
            <g transform="matrix(7.62257,0,0,8.29495,-1963.58,-1350.7)">
                <path d="M556.357,253.04C556.361,252.608 556.423,252.189 556.534,251.791L565.807,251.791C565.918,252.189 565.979,252.608 565.984,253.04C565.984,253.04 565.984,253.11 565.984,253.122C565.966,255.63 564.026,257.685 561.565,257.885C561.435,257.895 561.303,257.901 561.17,257.901C558.541,257.901 556.401,255.788 556.358,253.169C556.357,253.142 556.357,253.115 556.357,253.087L556.357,253.04Z" style="fill:none;stroke:rgb(77,59,6);stroke-width:1.39px;"/>
            </g>
        </g>
    </g>
    <defs>
        <linearGradient id="_Linear1" x1="0" y1="0" x2="1" y2="0" gradientUnits="userSpaceOnUse" gradientTransform="matrix(1865.92,0,0,1333.35,628.465,1436.37)"><stop offset="0" style="stop-color:rgb(97,132,190);stop-opacity:1"/><stop offset="1" style="stop-color:rgb(56,181,227);stop-opacity:1"/></linearGradient>
        <linearGradient id="_Linear2" x1="0" y1="0" x2="1" y2="0" gradientUnits="userSpaceOnUse" gradientTransform="matrix(17.6485,-437.456,369.411,17.6485,701.403,773.681)"><stop offset="0" style="stop-color:rgb(48,100,43);stop-opacity:1"/><stop offset="1" style="stop-color:rgb(69,130,54);stop-opacity:1"/></linearGradient>
        <linearGradient id="_Linear3" x1="0" y1="0" x2="1" y2="0" gradientUnits="userSpaceOnUse" gradientTransform="matrix(17.6485,-437.456,369.411,17.6485,701.403,773.681)"><stop offset="0" style="stop-color:rgb(48,100,43);stop-opacity:1"/><stop offset="1" style="stop-color:rgb(69,130,54);stop-opacity:1"/></linearGradient>
        <linearGradient id="_Linear4" x1="0" y1="0" x2="1" y2="0" gradientUnits="userSpaceOnUse" gradientTransform="matrix(69.2145,-1008.73,851.828,69.2145,552.403,1342.08)"><stop offset="0" style="stop-color:rgb(48,142,74);stop-opacity:1"/><stop offset="1" style="stop-color:rgb(142,182,66);stop-opacity:1"/></linearGradient>
        <linearGradient id="_Linear5" x1="0" y1="0" x2="1" y2="0" gradientUnits="userSpaceOnUse" gradientTransform="matrix(1.53583e-13,-95.0656,49.6806,8.02612e-14,603.747,446.828)"><stop offset="0" style="stop-color:rgb(189,136,27);stop-opacity:1"/><stop offset="1" style="stop-color:rgb(229,174,35);stop-opacity:1"/></linearGradient>
        <linearGradient id="_Linear6" x1="0" y1="0" x2="1" y2="0" gradientUnits="userSpaceOnUse" gradientTransform="matrix(14.9098,-878.942,742.226,14.9098,542.059,1207)"><stop offset="0" style="stop-color:rgb(127,165,59);stop-opacity:1"/><stop offset="1" style="stop-color:rgb(192,184,53);stop-opacity:1"/></linearGradient>
        <linearGradient id="_Linear7" x1="0" y1="0" x2="1" y2="0" gradientUnits="userSpaceOnUse" gradientTransform="matrix(-13.5356,-617.236,521.227,-13.5356,542.059,1207)"><stop offset="0" style="stop-color:rgb(0,147,78);stop-opacity:1"/><stop offset="1" style="stop-color:rgb(166,177,49);stop-opacity:1"/></linearGradient>
    </defs>
</svg>
