<svg width="460" height="1100" viewBox="0 0 460 1100" fill="none" xmlns="http://www.w3.org/2000/svg">
<path d="M37.7471 704.139C37.7471 688.598 50.3452 676 65.8862 676H393.945C409.486 676 422.084 688.598 422.084 704.139C422.084 719.68 409.486 732.278 393.945 732.278H65.8862C50.3452 732.278 37.7471 719.68 37.7471 704.139Z" fill="#957755"/>
<path d="M37.7471 896.994C37.7471 881.453 50.3452 868.854 65.8862 868.854H393.945C409.486 868.854 422.084 881.453 422.084 896.994C422.084 912.535 409.486 925.133 393.945 925.133H65.8862C50.3452 925.133 37.7471 912.535 37.7471 896.994Z" fill="#957755"/>
<path d="M107.749 703.139C107.749 687.598 120.348 675 135.889 675H65.8852C50.3442 675 37.7461 687.598 37.7461 703.139C37.7461 718.68 50.3442 731.278 65.8852 731.278H135.889C120.348 731.278 107.749 718.68 107.749 703.139Z" fill="#806749"/>
<path d="M107.749 895.994C107.749 880.453 120.348 867.854 135.889 867.854H65.8852C50.3442 867.854 37.7461 880.453 37.7461 895.994C37.7461 911.535 50.3442 924.133 65.8852 924.133H135.889C120.348 924.133 107.749 911.535 107.749 895.994Z" fill="#806749"/>
<rect x="63.915" y="676" width="337" height="55" stroke="#353030" stroke-width="20"/>
<rect x="63.915" y="862" width="337" height="55" stroke="#353030" stroke-width="20"/>
<path d="M37.7471 133.832C37.7471 118.291 50.3452 105.693 65.8862 105.693H393.945C409.486 105.693 422.084 118.291 422.084 133.832C422.084 149.373 409.486 161.971 393.945 161.971H65.8862C50.3452 161.971 37.7471 149.373 37.7471 133.832Z" fill="#957755"/>
<path d="M37.7471 326.686C37.7471 311.145 50.3452 298.547 65.8862 298.547H393.945C409.486 298.547 422.084 311.145 422.084 326.686C422.084 342.227 409.486 354.826 393.945 354.826H65.8862C50.3452 354.826 37.7471 342.227 37.7471 326.686Z" fill="#957755"/>
<path d="M37.7471 517.482C37.7471 501.941 50.3452 489.343 65.8862 489.343H393.945C409.486 489.343 422.084 501.941 422.084 517.482C422.084 533.023 409.486 545.621 393.945 545.621H65.8862C50.3452 545.621 37.7471 533.023 37.7471 517.482Z" fill="#957755"/>
<path d="M107.749 133.832C107.749 118.291 120.348 105.693 135.889 105.693H65.8852C50.3442 105.693 37.7461 118.291 37.7461 133.832C37.7461 149.373 50.3442 161.971 65.8852 161.971H135.889C120.348 161.971 107.749 149.373 107.749 133.832Z" fill="#806749"/>
<path d="M107.749 326.686C107.749 311.145 120.348 298.547 135.889 298.547H65.8852C50.3442 298.547 37.7461 311.145 37.7461 326.686C37.7461 342.227 50.3442 354.826 65.8852 354.826H135.889C120.348 354.826 107.749 342.227 107.749 326.686Z" fill="#806749"/>
<path d="M107.749 517.482C107.749 501.941 120.348 489.343 135.889 489.343H65.8852C50.3442 489.343 37.7461 501.941 37.7461 517.482C37.7461 533.023 50.3442 545.621 65.8852 545.621H135.889C120.348 545.621 107.749 533.023 107.749 517.482Z" fill="#806749"/>
<path d="M422.082 1089C406.566 1089 393.943 1067.47 393.943 1041V57.6074C393.943 31.1391 406.566 9.60815 422.082 9.60815C437.599 9.60815 450.222 31.1391 450.222 57.6074V1041C450.222 1067.47 437.599 1089 422.082 1089Z" fill="#6B5742"/>
<path d="M37.7466 1089C22.2297 1089 9.60742 1067.47 9.60742 1041V57.6074C9.60742 31.1391 22.2297 9.60815 37.7466 9.60815C53.2634 9.60815 65.8857 31.1391 65.8857 57.6074V1041C65.8857 1067.47 53.2621 1089 37.7466 1089Z" fill="#6B5742"/>
<path d="M428.261 1049.6V58.0076C428.261 42.4322 432.578 28.5938 439.242 19.7339C434.487 13.4105 428.545 9.60809 422.083 9.60809C406.567 9.60809 393.944 31.3185 393.944 58.0076V1049.6C393.944 1076.29 406.567 1098 422.083 1098C428.545 1098 434.487 1094.2 439.242 1087.87C432.578 1079.01 428.261 1065.18 428.261 1049.6Z" fill="#5F4C37"/>
<path d="M43.923 1049.6V58.0076C43.923 42.4322 48.24 28.5938 54.9039 19.7339C50.1489 13.4105 44.207 9.60809 37.7456 9.60809C22.2288 9.60809 9.60645 31.3185 9.60645 58.0076V1049.6C9.60645 1076.29 22.2288 1098 37.7456 1098C44.207 1098 50.1489 1094.2 54.9039 1087.87C48.24 1079.01 43.923 1065.18 43.923 1049.6Z" fill="#5F4C37"/>
<path d="M422.083 0C401.269 0 384.336 16.9329 384.336 37.7472V96.0847H75.4945V37.7472C75.4945 16.9329 58.5616 0 37.7472 0C16.9329 0 0 16.9329 0 37.7472V1062.25C0 1083.07 16.9329 1100 37.7472 1100C58.5616 1100 75.4945 1083.07 75.4945 1062.25V555.915H384.336V1062.25C384.336 1083.07 401.269 1100 422.083 1100C442.898 1100 459.831 1083.07 459.831 1062.25V37.7472C459.831 16.9329 442.898 0 422.083 0ZM54.9043 1062.25C54.9043 1071.71 47.2076 1079.41 37.746 1079.41C28.2843 1079.41 20.5877 1071.71 20.5877 1062.25V37.7472C20.5877 28.2856 28.2843 20.5889 37.746 20.5889C47.2076 20.5889 54.9043 28.2856 54.9043 37.7472V1062.25ZM384.336 535.326H75.4945V501.011H384.336V535.326ZM384.336 480.421H75.4945V363.747H384.336V480.421ZM384.336 343.158H75.4945V308.843H384.336V343.158ZM384.336 150.989H334.465C328.779 150.989 324.17 155.599 324.17 161.283C324.17 166.969 328.78 171.578 334.465 171.578H384.336V288.251H75.4945V171.578H293.688C299.374 171.578 303.982 166.968 303.982 161.283C303.982 155.598 299.372 150.989 293.688 150.989H75.4945V116.674H384.336V150.989ZM439.242 1062.25C439.242 1071.71 431.545 1079.41 422.083 1079.41C412.622 1079.41 404.925 1071.71 404.925 1062.25V37.7472C404.925 28.2856 412.622 20.5889 422.083 20.5889C431.545 20.5889 439.242 28.2856 439.242 37.7472V1062.25Z" fill="#353030"/>
<rect x="65.915" y="106" width="328" height="55" stroke="#353030" stroke-width="20"/>
</svg>
