<svg width="320" height="308" viewBox="0 0 320 308" fill="none" xmlns="http://www.w3.org/2000/svg">
<path d="M24.4175 29.8942C24.3363 30.1792 23.9302 31.8076 23.5648 33.4768C23.1993 35.1459 22.6714 37.4258 22.3466 38.5657C19.1388 50.6569 18.7327 59.6948 21.169 66.1272C22.9963 71.0939 24.0114 72.9259 24.7829 72.9259C25.7574 72.9666 29.7368 66.4936 31.361 62.1782C33.9598 55.4608 34.0816 54.8502 34.0816 48.4992C34.1222 42.1075 34.041 41.8226 31.361 36.408C30.5489 34.8202 29.1683 32.9475 27.7471 31.6041C25.4326 29.3649 24.6611 28.9985 24.4175 29.8942Z" fill="white"/>
<path d="M292.901 31.1155C289.815 34.0467 288.19 36.4894 286.85 40.4791C285.673 43.8988 285.592 52.7332 286.688 56.4786C288.759 63.6031 293.835 73.1295 295.378 72.8445C295.946 72.7631 297.57 69.9133 298.626 67.2671C299.519 64.9465 300.697 58.5142 300.697 55.8679C300.697 52.7332 299.519 45.8123 297.651 38.3621C297.367 37.1408 296.758 34.6574 296.352 32.9068C295.905 31.1155 295.418 29.6092 295.175 29.5278C294.972 29.4464 293.956 30.1792 292.901 31.1155Z" fill="white"/>
<path d="M4.92604 59.8169C4.51998 60.224 4.6418 64.9058 5.08846 67.3078C5.33209 68.5291 5.69754 70.9718 5.90057 72.7631C6.79389 80.946 9.14901 89.414 12.1538 95.3578C14.4683 99.9989 19.7876 105.495 22.0209 105.536C22.7924 105.536 22.9143 105.251 23.1985 102.767C23.8482 96.4977 22.9143 86.0757 21.0464 79.4804C18.5695 70.5647 13.8998 63.4809 9.0678 61.2418C6.18481 59.9391 5.16967 59.5727 4.92604 59.8169Z" fill="white"/>
<path d="M313.285 60.1833C309.752 61.3232 305.854 64.7837 303.418 68.8548C298.626 76.9563 295.946 90.391 296.839 101.872C297.164 106.024 297.53 106.35 300.007 104.64C305.854 100.569 309.468 94.2179 312.188 83.348C313.325 78.9105 314.097 74.7986 314.097 73.5773C314.097 72.8852 314.381 70.9311 314.706 69.1805C315.031 67.4299 315.315 64.6208 315.315 62.9517C315.315 59.7762 315.152 59.5727 313.285 60.1833Z" fill="white"/>
<path d="M42.2431 79.7654C36.8831 86.5235 31.9293 96.1313 29.7366 103.907C28.0312 109.851 27.8281 111.194 27.8281 116.568C27.8281 123.53 28.5996 126.135 31.8481 130.329C33.1474 131.998 33.2693 132.039 33.7971 131.347C34.3656 130.573 40.8219 117.464 41.9588 114.899C42.2837 114.126 42.8115 112.945 43.0958 112.334C43.4206 111.683 43.6643 110.909 43.6643 110.543C43.6643 110.217 43.9079 109.444 44.2327 108.874C44.8418 107.693 45.6539 105.088 46.6285 101.261C48.2121 95.0728 48.5369 89.3733 47.5624 84.7729C46.9939 81.9231 45.0854 77.4449 44.4358 77.4449C44.2327 77.4449 43.2582 78.5034 42.2431 79.7654Z" fill="white"/>
<path d="M274.831 78.5441C273.248 80.9461 271.867 86.6049 271.867 90.4725C271.908 94.3807 273.329 102.116 274.547 105.047C274.872 105.78 275.116 106.635 275.116 106.961C275.116 107.286 275.359 108.141 275.684 108.874C276.009 109.607 276.659 111.235 277.146 112.457C279.582 118.563 286.079 131.591 286.688 131.591C287.785 131.591 290.302 127.805 291.52 124.344C292.129 122.634 292.292 120.965 292.251 116.69C292.251 110.909 291.764 108.1 289.855 102.482C289.287 100.895 288.718 99.0625 288.515 98.4112C287.054 93.6479 277.227 77.4449 275.765 77.4449C275.643 77.4449 275.197 77.9334 274.831 78.5441Z" fill="white"/>
<path d="M1.27189 91.2053C0.784624 91.6531 1.02826 99.6325 1.67794 103.866C2.44945 109.322 3.38337 114.166 4.11427 116.528C5.17001 120.07 6.30697 123.489 6.67242 124.181C8.49966 127.805 9.10875 128.904 10.6111 131.224C12.4384 133.993 18.6104 140.262 20.2346 140.954C20.7219 141.199 21.8995 141.85 22.874 142.42C25.3915 143.886 25.8788 143.56 25.554 140.669C24.8637 133.667 22.0619 121.332 19.8286 115.51C19.5037 114.614 18.9353 113.149 18.5698 112.253C17.8389 110.34 16.6208 107.693 15.9305 106.553C13.0881 101.831 11.4233 99.5918 8.98693 97.027C6.14455 94.0958 1.71855 90.7167 1.27189 91.2053Z" fill="white"/>
<path d="M315.721 92.9966C312.107 95.7242 310.361 97.4748 307.803 100.895C302.686 107.653 298.91 117.138 296.474 129.148C295.58 133.545 294.687 138.797 294.443 141.076C294.159 143.641 294.687 143.804 297.732 142.135C302.605 139.448 307.518 134.603 310.726 129.352C311.579 127.967 314.096 122.634 314.096 122.227C314.096 122.024 314.34 121.25 314.665 120.517C315.924 117.586 317.264 111.724 318.36 104.436C319.01 100.121 319.213 91.4495 318.685 91.1646C318.482 91.0424 317.182 91.8974 315.721 92.9966Z" fill="white"/>
<path d="M44.2726 123.204C43.9478 123.978 43.6636 125.118 43.6636 125.728C43.6636 126.298 43.3387 127.927 42.9733 129.311C41.9581 133.138 41.9581 151.336 42.9733 155.61C44.7599 162.898 45.6126 165.3 48.1302 170.674C50.5665 175.885 55.7234 183.701 56.6979 183.701C57.5912 183.701 58.7282 180.485 59.4997 175.762C59.6621 174.623 60.0276 172.913 60.3524 171.895C61.1645 168.964 61.0427 153.29 60.1494 149.911C58.0785 141.972 56.0076 136.68 53.4089 132.609C52.9622 131.916 52.4343 131.021 52.2313 130.573C51.5816 129.23 45.9375 122.105 45.369 121.902C45.0847 121.82 44.5975 122.39 44.2726 123.204Z" fill="white"/>
<path d="M271.948 124.955C269.512 128.008 266.101 133.219 265.329 135.011C265.126 135.458 264.802 136.15 264.599 136.476C263.137 138.96 261.188 144.659 259.848 150.277C258.995 153.941 258.873 168.475 259.685 171.488C259.97 172.506 260.335 174.338 260.538 175.559C261.107 179.304 262.284 182.968 263.015 183.457C263.583 183.783 263.868 183.701 264.355 183.09C265.126 182.073 268.659 176.821 269.268 175.762C270.365 173.89 273.897 166.643 273.897 166.236C273.897 165.992 274.141 165.218 274.466 164.485C277.43 157.483 278.729 146.288 277.795 135.865C277.471 132.283 276.983 128.7 276.78 127.927C276.537 127.153 276.334 125.973 276.334 125.281C276.334 123.937 275.562 122.187 274.872 121.942C274.628 121.861 273.288 123.204 271.948 124.955Z" fill="white"/>
<path d="M1.27156 137.616C0.906111 138.186 2.65215 143.641 4.39818 147.468C7.28117 153.86 13.4938 160.089 21.6149 164.77C23.3609 165.788 25.0664 166.806 25.3912 167.01C27.99 168.557 41.471 175.152 42.0801 175.152C42.7704 175.152 42.8516 174.948 42.6485 173.605C42.2019 170.959 41.1867 167.987 39.3189 163.956C36.3141 157.402 29.8984 151.091 20.7216 145.555C18.6101 144.293 11.1793 140.792 7.5248 139.326C6.30664 138.878 4.76363 138.186 4.15455 137.86C2.85517 137.209 1.5964 137.128 1.27156 137.616Z" fill="white"/>
<path d="M315.72 137.982C314.949 138.349 313.69 138.878 313 139.163C309.995 140.425 308.736 140.954 307.477 141.484C305.528 142.339 300.615 144.863 299.031 145.799C298.26 146.288 297.367 146.776 297.042 146.939C296.473 147.183 295.174 148.12 291.56 150.806C289.327 152.516 284.454 157.687 283.033 159.885C281.449 162.409 278.769 167.987 278.769 168.801C278.769 169.086 278.485 170.022 278.16 170.796C277.348 172.709 277.348 175.152 278.12 175.152C278.607 175.152 293.509 167.742 297.042 165.747C304.472 161.514 311.091 155.57 314.38 150.114C316.411 146.776 319.293 138.552 318.766 137.697C318.4 137.128 317.385 137.25 315.72 137.982Z" fill="white"/>
<path d="M10.6116 169.412C10.368 169.778 10.7334 171.121 11.1395 171.488C11.2613 171.61 11.8298 172.343 12.3983 173.116C17.3521 180.241 26.9756 189.36 33.7161 193.309C34.8125 193.96 36.1119 194.693 36.5585 194.978C37.0052 195.263 37.7767 195.67 38.3046 195.915C38.8324 196.118 40.1724 196.729 41.35 197.258C47.2784 199.986 52.9225 201.451 60.7188 202.428C65.1042 202.958 65.1854 202.958 65.1854 202.225C65.1854 201.411 60.9624 194.978 58.0794 191.436C54.8716 187.528 46.3038 179.711 44.0705 178.694C43.7457 178.531 42.9336 178.042 42.2433 177.594C40.4973 176.495 36.3149 174.297 35.1373 173.93C34.5689 173.727 33.1477 173.198 31.9295 172.75C28.5999 171.488 23.646 170.389 18.8951 169.859C11.3019 169.045 10.8553 169.004 10.6116 169.412Z" fill="white"/>
<path d="M306.381 169.289C294.809 170.348 289.449 171.691 281.815 175.437C276.009 178.327 272.192 181.014 267.319 185.859C261.553 191.518 254 201.736 254.894 202.673C255.219 202.958 262.365 202.143 265.979 201.37C272.354 200.026 276.049 198.724 282.018 195.711C284.698 194.368 290.383 190.866 290.951 190.215C291.073 190.093 291.967 189.36 292.982 188.587C297.286 185.33 302.727 179.671 306.747 174.338C309.874 170.144 310.158 169.574 309.386 169.289C309.021 169.167 308.534 169.086 308.29 169.127C308.006 169.127 307.153 169.249 306.381 169.289Z" fill="white"/>
<path d="M65.8344 170.959C65.0629 171.773 66.7684 182.073 68.4738 187.162C68.7174 187.813 69.0829 188.912 69.2453 189.604C69.9762 192.169 72.2501 197.787 73.3058 199.579C73.5089 199.904 74.118 201.044 74.6864 202.103C75.9858 204.505 78.3815 208.25 79.0718 208.983C79.3561 209.308 80.4118 210.571 81.4269 211.792C85.0408 216.189 90.2383 220.87 95.2734 224.127C97.6691 225.715 98.4406 225.959 98.5218 225.104C99.0091 219.486 96.8164 207.843 93.974 201.003C93.0807 198.805 90.7256 194.123 89.9541 192.861C89.5074 192.169 89.0202 191.355 88.8577 191.029C88.208 189.564 84.6754 185.289 81.6706 182.236C78.6658 179.223 72.1283 173.93 71.438 173.93C71.2756 173.93 70.8289 173.686 70.5041 173.36C69.4077 172.424 66.0781 170.714 65.8344 170.959Z" fill="white"/>
<path d="M252.579 171.529C251.929 171.936 251.076 172.424 250.752 172.587C250.427 172.75 249.33 173.401 248.315 174.093C241.656 178.531 234.915 185.126 231.423 190.622C228.175 195.792 224.926 203.039 223.952 207.314C223.79 208.087 223.465 209.553 223.221 210.571C222.044 215.374 221.516 219.039 221.516 222.133C221.516 223.965 221.637 225.593 221.759 225.756C222.368 226.367 230.814 220.016 235.118 215.659C241.169 209.593 244.986 203.813 248.884 194.897C252.132 187.487 255.462 172.302 254.162 171.081C253.959 170.918 253.269 171.121 252.579 171.529Z" fill="white"/>
<path d="M39.4009 203.283C36.7615 203.609 34.1628 204.464 33.4319 205.197C33.1476 205.482 32.7416 205.685 32.4979 205.685C31.8483 205.685 30.2646 207.436 30.2646 208.209C30.2646 208.698 36.3149 213.054 38.7918 214.357C39.1166 214.519 39.9694 215.008 40.619 215.456C41.3093 215.904 42.2027 216.433 42.6493 216.677C43.096 216.921 44.5578 217.736 45.8978 218.509C48.8213 220.219 58.1606 224.819 60.7187 225.837C61.7339 226.244 63.1145 226.774 63.7642 227.059C64.4544 227.344 65.9975 227.873 67.2156 228.198C68.4338 228.565 70.5453 229.135 71.8852 229.542C75.4991 230.56 85.0414 230.6 87.5184 229.542C90.2795 228.402 90.5638 228.239 90.6856 227.547C90.848 226.733 85.5693 222.051 79.0724 217.329C77.6918 216.311 76.4737 215.456 76.3925 215.456C76.2706 215.456 75.1337 214.764 73.8343 213.909C71.3168 212.199 70.9513 211.995 66.1193 209.634C60.6781 206.907 56.0085 205.034 53.8158 204.586C53.2473 204.464 51.9886 204.138 50.9734 203.853C48.6589 203.161 42.5681 202.876 39.4009 203.283Z" fill="white"/>
<path d="M272.882 203.243C269.755 203.568 266.345 204.423 262.934 205.726C261.716 206.174 260.213 206.703 259.645 206.907C259.076 207.069 258.264 207.395 257.817 207.639C257.411 207.884 255.665 208.739 254 209.553C246.488 213.217 237.718 219.201 231.464 224.942C228.703 227.506 228.703 228.117 231.464 229.176C237.961 231.618 249.168 230.275 259.482 225.837C262.04 224.697 266.426 222.702 266.994 222.377C267.319 222.173 269.065 221.278 270.852 220.341C272.638 219.446 274.669 218.306 275.318 217.899C276.009 217.451 276.902 216.922 277.349 216.677C277.795 216.433 278.729 215.904 279.379 215.456C280.069 215.008 280.881 214.52 281.206 214.357C281.531 214.194 282.952 213.298 284.373 212.321C285.795 211.344 287.013 210.571 287.135 210.571C287.256 210.571 287.865 210.163 288.515 209.675C290.302 208.372 290.099 207.314 287.744 205.767C286.607 205.075 285.51 204.464 285.267 204.464C285.023 204.464 284.333 204.22 283.724 203.894C282.343 203.202 276.577 202.835 272.882 203.243Z" fill="white"/>
<path d="M104.775 204.667C104.572 204.749 103.882 204.912 103.273 205.034C101.811 205.359 101.811 206.377 103.192 208.413C103.76 209.268 104.41 210.326 104.613 210.774C104.816 211.222 105.344 212.118 105.79 212.81C106.237 213.461 106.765 214.397 107.008 214.845C107.252 215.293 107.78 216.189 108.227 216.881C108.673 217.532 109.201 218.468 109.445 218.916C109.688 219.364 110.176 220.219 110.582 220.83C110.947 221.44 112.003 223.069 112.856 224.494C116.835 230.885 123.129 238.132 127.717 241.674C130.519 243.832 134.498 245.704 137.706 246.356C140.914 247.048 142.092 246.844 142.254 245.664C142.457 244.402 140.995 239.557 139.29 235.608C137.706 231.944 136.894 230.438 134.945 227.344C134.295 226.366 133.808 225.512 133.808 225.389C133.808 225.267 132.468 223.395 130.803 221.237C125.687 214.52 119.149 208.779 114.114 206.54C111.434 205.359 105.993 204.26 104.775 204.667Z" fill="white"/>
<path d="M209.943 205.278C205.68 206.377 204.461 206.988 199.792 210.448C194.513 214.316 188.869 220.83 184.687 227.873C183.834 229.298 180.22 236.789 179.57 238.458C178.555 241.104 177.54 245.46 177.784 246.152C178.109 246.926 179.773 246.966 182.941 246.234C190.737 244.524 198.899 237.236 206.979 224.819C208.644 222.255 213.923 213.542 214.329 212.606C214.491 212.28 214.978 211.425 215.425 210.774C215.872 210.082 216.359 209.268 216.521 208.942C216.643 208.616 217.09 207.924 217.496 207.395C218.47 206.133 218.105 205.4 216.318 204.871C214.329 204.342 213.313 204.382 209.943 205.278Z" fill="white"/>
<path d="M70.2606 235.404C68.9206 235.608 66.5655 235.974 64.9819 236.178C55.5614 237.562 48.4554 242 45.8161 248.106C45.5318 248.717 45.4506 249.287 45.6131 249.368C46.1815 249.694 53.3687 250.875 58.891 251.526C67.0121 252.544 85.1222 252.544 89.9542 251.526C97.7099 249.938 103.516 247.455 106.927 244.239C109.201 242.04 109.485 241.348 108.267 240.738C106.602 239.801 99.4965 237.888 94.2178 236.87C86.6246 235.445 74.8084 234.712 70.2606 235.404Z" fill="white"/>
<path d="M239.383 235.201C239.058 235.282 236.581 235.567 233.901 235.811C229.272 236.259 225.171 236.911 221.11 237.928C220.095 238.173 218.633 238.498 217.862 238.661C214.695 239.394 210.959 240.941 210.959 241.552C210.959 242.081 213.842 245.012 215.629 246.234C217.212 247.292 221.354 249.287 222.938 249.694C223.628 249.857 224.724 250.183 225.374 250.386C226.064 250.63 228.338 251.16 230.45 251.526C235.769 252.544 252.986 252.544 261.107 251.526C267.644 250.752 273.979 249.653 274.425 249.287C275.481 248.35 270.284 241.796 267.238 240.29C266.345 239.801 265.289 239.272 264.964 239.109C262.853 237.888 257.696 236.463 252.986 235.811C249.615 235.364 240.439 234.916 239.383 235.201Z" fill="white"/>
<path d="M119.19 250.305C114.236 251.16 109.892 252.096 108.024 252.747C107.09 253.073 106.075 253.317 105.709 253.317C105.303 253.317 104.41 253.562 103.679 253.887C102.948 254.213 101.527 254.783 100.512 255.149C87.3556 260.279 78.5442 268.38 77.5697 276.278C77.326 278.029 77.4072 278.558 77.8133 278.558C78.6254 278.558 87.5992 276.93 92.5937 275.871C94.1773 275.546 95.8015 275.301 96.2482 275.301C97.0197 275.301 99.6184 274.772 105.181 273.388C117.119 270.497 125.89 266.589 131.453 261.622C134.864 258.61 139.209 252.055 138.356 251.2C136.854 249.694 126.012 249.165 119.19 250.305Z" fill="white"/>
<path d="M183.753 250.386C182.535 250.793 181.52 251.282 181.52 251.485C181.52 251.73 182.088 252.992 182.738 254.294C184.199 257.185 188.625 262.07 191.671 264.106C193.985 265.612 200.117 268.91 201.457 269.317C201.863 269.439 203.528 269.968 205.071 270.538C207.71 271.434 208.806 271.759 214.654 273.429C215.912 273.795 217.252 274.08 217.699 274.08C218.105 274.08 219.648 274.324 221.11 274.65C226.47 275.871 229.881 276.523 230.774 276.523C231.302 276.523 232.845 276.767 234.225 277.093C238.083 277.988 242.631 278.721 242.834 278.477C243.118 278.192 242.062 273.836 241.331 272.248C239.098 267.281 233.291 261.745 227.201 258.65C226.186 258.162 225.089 257.592 224.764 257.429C223.912 256.941 221.597 255.964 219.689 255.231C218.795 254.905 217.334 254.376 216.44 254.009C206.614 250.386 189.762 248.513 183.753 250.386Z" fill="white"/>
<path d="M152.283 258.61C150.943 259.302 148.994 260.36 147.938 260.971C141.604 264.676 136.569 270.701 136.163 275.098L136.041 276.319L138.518 276.441C141.726 276.604 144.974 275.139 147.695 272.37C149.887 270.131 151.715 266.589 154.963 258.284C155.41 257.103 155.166 257.144 152.283 258.61Z" fill="white"/>
<path d="M165.48 258.895C166.089 260.849 167.104 263.495 167.47 264.228C167.673 264.594 168.282 265.816 168.81 266.874C170.475 270.375 170.759 270.742 173.154 272.94C175.956 275.464 178.514 276.523 181.844 276.523H184.24L183.956 274.894C183.793 273.999 183.225 272.492 182.697 271.515C182.169 270.579 181.56 269.439 181.357 268.991C180.463 266.956 174.576 262.233 169.459 259.465C165.724 257.429 164.993 257.348 165.48 258.895Z" fill="white"/>
</svg>
