<svg width="19" height="21" viewBox="0 0 19 21" fill="none" xmlns="http://www.w3.org/2000/svg">
<path fill-rule="evenodd" clip-rule="evenodd" d="M1.14441e-05 0.477789H18.3619V3.31853L9.18094 3.31853L1.14441e-05 3.31853V0.477789ZM9.18094 3.31853L9.18094 6.44746L18.3619 9.84399V6.71506L9.18094 3.31853ZM9.18094 3.31853V6.44746L0 9.84399V6.71506L9.18094 3.31853Z" fill="#FF0000"/>
<path fill-rule="evenodd" clip-rule="evenodd" d="M1.14441e-05 10.9144L9.18094 7.51788H9.18095L18.3619 10.9144V14.0433V14.2286L18.3619 17.3575L15.6354 18.3662H15.727L19 20.7335H14.8624L12.9586 19.3565L9.18094 20.7541V17.6252L15.5211 15.2796V12.9924L9.18095 10.6468L2.84074 12.9924V15.2796L9.18094 17.6252V20.7541L0 17.3575V14.2286V10.935H1.14441e-05V10.9144Z" fill="#FF0000"/>
</svg>
