<svg width="1095" height="881" viewBox="0 0 1095 881" fill="none" xmlns="http://www.w3.org/2000/svg">
<g clip-path="url(#clip0_396_32)">
<path d="M532.942 910.063L627.36 853.68L616.082 834.795L521.664 891.178L532.942 910.063Z" fill="#F9EBB2"/>
<path d="M418.301 503.599C399.649 528.19 377.682 541.69 377.186 541.995C376.693 542.289 354.378 555.237 323.886 559.989L510.426 872.3L604.827 815.918L418.301 503.599Z" fill="#B4CCB9"/>
<path d="M653.478 1004.59C679.554 989.029 688.066 955.27 672.501 929.194L638.667 872.545L544.249 928.946L578.086 985.584C593.651 1011.66 627.41 1020.17 653.478 1004.59Z" fill="#506C7F"/>
<path d="M215.106 485.077C181.564 428.931 186.942 386.188 193.17 336.709C196.988 306.351 200.9 275.214 196.229 239.015C225.894 260.304 255.177 271.615 283.696 282.632C330.21 300.62 370.404 316.154 403.936 372.296C459.466 465.272 369.72 520.79 365.925 523.093C362.047 525.364 270.626 578.049 215.106 485.077Z" fill="#F76D57"/>
<path d="M664.764 1023.49C701.267 1001.68 713.181 954.427 691.384 917.916L431.456 482.715C446.957 452.259 452.663 411.002 422.808 361.016C385.385 298.357 339.839 280.749 291.599 262.111C257.368 248.873 221.97 235.194 187.242 203.414C183.642 200.14 178.335 199.595 174.172 202.099C170.003 204.58 167.957 209.508 169.145 214.222C180.657 259.877 175.917 297.53 171.331 333.942C164.882 385.244 158.779 433.69 196.202 496.349C226.057 546.335 265.073 560.882 299.262 561.669L559.177 996.878C581.011 1033.38 628.264 1045.29 664.764 1023.49ZM215.106 485.077C181.564 428.931 186.942 386.188 193.17 336.709C196.987 306.351 200.9 275.214 196.229 239.015C225.894 260.304 255.177 271.615 283.696 282.632C330.21 300.62 370.404 316.154 403.936 372.296C459.466 465.272 369.72 520.79 365.925 523.093C362.047 525.364 270.626 578.049 215.106 485.077ZM323.887 559.989C354.381 555.227 376.693 542.289 377.187 541.995C377.682 541.69 399.66 528.193 418.301 503.599L604.828 815.918L510.426 872.3L323.887 559.989ZM521.696 891.169L616.108 834.79L627.386 853.673L532.974 910.052L521.696 891.169ZM544.25 928.946L638.667 872.545L672.501 929.194C688.066 955.27 679.554 989.029 653.478 1004.59C627.41 1020.17 593.652 1011.66 578.086 985.584L544.25 928.946Z" fill="#394240"/>
<path d="M358.425 489.135C355.305 483.911 348.568 482.213 343.344 485.333C312.066 504.023 271.56 493.81 252.861 462.518C249.744 457.283 243.005 455.595 237.781 458.715C232.568 461.838 230.869 468.575 233.979 473.796C258.901 515.509 312.912 529.128 354.622 504.216C359.846 501.096 361.548 494.348 358.425 489.135Z" fill="#394240"/>
</g>
<g clip-path="url(#clip1_396_32)">
<path d="M652.705 789.201L759.999 765.08L755.174 743.619L647.88 767.74L652.705 789.201Z" fill="#F9EBB2"/>
<path d="M670.561 367.257C645.17 384.803 620.088 390.778 619.522 390.913C618.962 391.039 593.721 396.381 563.268 391.385L643.091 746.299L750.369 722.173L670.561 367.257Z" fill="#B4CCB9"/>
<path d="M737.743 916.612C767.374 909.956 785.99 880.537 779.335 850.907L764.858 786.531L657.559 810.669L672.042 875.035C678.697 904.665 708.116 923.282 737.743 916.612Z" fill="#506C7F"/>
<path d="M483.281 286.281C468.924 222.475 487.365 183.541 508.715 138.473C521.811 110.82 535.24 82.4566 542.093 46.6064C563.637 76.0862 587.932 95.9668 611.592 115.33C650.175 146.928 683.519 174.224 697.867 238.024C721.627 343.681 619.042 368.438 614.717 369.442C610.325 370.39 507.032 391.933 483.281 286.281Z" fill="#F76D57"/>
<path d="M742.572 938.085C784.057 928.748 810.115 887.569 800.793 846.081L689.574 351.518C713.801 327.416 732.09 289.996 719.316 233.192C703.303 161.987 665.521 131.051 625.501 98.2967C597.107 75.0425 567.742 51.0046 544.658 9.97844C542.258 5.74522 537.387 3.57142 532.65 4.65252C527.916 5.7092 524.434 9.75359 524.093 14.6032C520.79 61.5712 504.543 95.8667 488.829 129.032C466.7 175.763 445.79 219.889 461.803 291.095C474.578 347.899 507.111 373.889 539.349 385.302L650.553 879.868C659.914 921.355 701.094 947.413 742.572 938.085ZM483.281 286.281C468.924 222.475 487.365 183.541 508.715 138.473C521.811 110.82 535.24 82.4565 542.093 46.6064C563.637 76.0862 587.932 95.9667 611.592 115.33C650.175 146.928 683.519 174.224 697.867 238.024C721.627 343.681 619.042 368.438 614.717 369.442C610.325 370.39 507.032 391.933 483.281 286.281ZM563.268 391.385C593.727 396.372 618.962 391.039 619.522 390.913C620.088 390.778 645.18 384.809 670.562 367.257L750.369 722.173L643.091 746.299L563.268 391.385ZM647.913 767.742L755.2 743.623L760.026 765.081L652.739 789.201L647.913 767.742ZM657.559 810.669L764.858 786.531L779.335 850.907C785.99 880.537 767.374 909.956 737.743 916.612C708.116 923.282 678.697 904.665 672.042 875.035L657.559 810.669Z" fill="#394240"/>
<path d="M618.183 334.839C616.849 328.903 610.978 325.187 605.041 326.522C569.493 334.525 534.194 312.187 526.188 276.624C524.859 270.678 518.983 266.972 513.046 268.307C507.119 269.648 503.404 275.519 504.73 281.449C515.398 328.855 562.467 358.64 609.867 347.981C615.803 346.646 619.524 340.766 618.183 334.839Z" fill="#394240"/>
</g>
<defs>
<clipPath id="clip0_396_32">
<rect width="702.441" height="702.441" fill="white" transform="translate(852.864 369.742) rotate(104.152)"/>
</clipPath>
<clipPath id="clip1_396_32">
<rect width="702.441" height="702.441" fill="white" transform="translate(1125.2 375.62) rotate(122.326)"/>
</clipPath>
</defs>
</svg>
