<svg width="854" height="860" viewBox="0 0 854 860" fill="none" xmlns="http://www.w3.org/2000/svg">
<mask id="path-1-inside-1_90_2005" fill="white">
<path fill-rule="evenodd" clip-rule="evenodd" d="M622 0C688.274 0 742 53.7258 742 120V860H295C228.726 860 175 806.274 175 740V126H96V0H175H177H622Z"/>
</mask>
<path fill-rule="evenodd" clip-rule="evenodd" d="M622 0C688.274 0 742 53.7258 742 120V860H295C228.726 860 175 806.274 175 740V126H96V0H175H177H622Z" fill="#FFF4C6"/>
<path d="M742 860H757V875H742V860ZM175 126V111H190V126H175ZM96 126V141H81V126H96ZM96 0H81V-15H96V0ZM727 120C727 62.0101 679.99 15 622 15V-15C696.558 -15 757 45.4416 757 120H727ZM727 860V120H757V860H727ZM295 845H742V875H295V845ZM190 740C190 797.99 237.01 845 295 845V875C220.442 875 160 814.558 160 740H190ZM190 126V740H160V126H190ZM96 111H175V141H96V111ZM111 0V126H81V0H111ZM175 15H96V-15H175V15ZM177 15H175V-15H177V15ZM622 15H177V-15H622V15Z" fill="#D4B33B" mask="url(#path-1-inside-1_90_2005)"/>
<circle cx="95" cy="95" r="87.5" fill="#F3E09C" stroke="#D4B33B" stroke-width="15"/>
<path d="M406.336 754.5C406.336 796.232 384.705 832.932 352.141 852.5H753.164C804.71 852.5 846.5 808.959 846.5 754.5C846.5 700.041 804.71 656.5 753.164 656.5H352.143C384.706 676.068 406.336 712.768 406.336 754.5Z" fill="#F3E09C" stroke="#D4B33B" stroke-width="15"/>
<mask id="path-5-inside-2_90_2005" fill="white">
<path fill-rule="evenodd" clip-rule="evenodd" d="M77 62.2142V61H177.864C185.626 76.3213 190 93.6498 190 112V189H77V187.785C105.236 181.983 126.3 156.076 126.3 125C126.3 93.9233 105.236 68.0164 77 62.2142Z"/>
</mask>
<path fill-rule="evenodd" clip-rule="evenodd" d="M77 62.2142V61H177.864C185.626 76.3213 190 93.6498 190 112V189H77V187.785C105.236 181.983 126.3 156.076 126.3 125C126.3 93.9233 105.236 68.0164 77 62.2142Z" fill="#F3E09C"/>
<path d="M77 62.2142H62V74.4454L73.9808 76.9073L77 62.2142ZM77 61V46H62V61H77ZM177.864 61L191.244 54.2209L187.079 46H177.864V61ZM190 189V204H205V189H190ZM77 189H62V204H77V189ZM77 187.785L73.9805 173.093L62 175.555V187.785H77ZM92 62.2142V61H62V62.2142H92ZM77 76H177.864V46H77V76ZM164.483 67.7791C171.205 81.0474 175 96.0588 175 112H205C205 91.2408 200.047 71.5951 191.244 54.2209L164.483 67.7791ZM175 112V189H205V112H175ZM190 174H77V204H190V174ZM92 189V187.785H62V189H92ZM80.0195 202.478C115.566 195.173 141.3 162.848 141.3 125H111.3C111.3 149.304 94.9066 168.792 73.9805 173.093L80.0195 202.478ZM141.3 125C141.3 87.1515 115.566 54.8256 80.0192 47.5212L73.9808 76.9073C94.9065 81.2071 111.3 100.695 111.3 125H141.3Z" fill="#D4B33B" mask="url(#path-5-inside-2_90_2005)"/>
</svg>
