<svg width="799" height="819" viewBox="0 0 799 819" fill="none" xmlns="http://www.w3.org/2000/svg">
<path fill-rule="evenodd" clip-rule="evenodd" d="M328.713 142.716C328.805 132.241 336.731 124.454 347.206 124.546L402.498 17.0001L455.886 125.504C466.361 125.596 474.148 133.522 474.055 143.997L454.685 261.681C454.593 272.156 446.667 279.943 436.192 279.851L364.175 279.216C353.7 279.124 345.913 271.198 346.005 260.723L328.713 142.716Z" fill="#CDCDCD" stroke="#6B6868" stroke-width="15"/>
<path fill-rule="evenodd" clip-rule="evenodd" d="M402.085 138.125L402.417 26.1656L402.085 138.125Z" fill="#CDCDCD"/>
<path d="M402.085 138.125L402.417 26.1656" stroke="#6B6868" stroke-width="15"/>
<path d="M385.016 143.212C374.438 153.605 374.288 170.606 384.682 181.184C395.075 191.763 412.076 191.912 422.654 181.519C433.232 171.126 433.382 154.125 422.989 143.547C412.595 132.968 395.595 132.819 385.016 143.212Z" fill="#CDCDCD" stroke="#6B6868" stroke-width="15"/>
<path fill-rule="evenodd" clip-rule="evenodd" d="M346.261 305.903C346.573 270.549 370.722 279.274 400.838 279.539C430.954 279.805 454.592 272.156 454.941 306.861C454.629 342.214 450.486 812.287 396.152 811.154C341.158 810.669 345.301 340.596 346.261 305.903Z" fill="#3F89F7" stroke="#6B6868" stroke-width="15"/>
<path d="M449.45 335.621L350.585 335.405" stroke="#6B6868" stroke-width="15"/>
</svg>
