<svg width="1708" height="423" viewBox="0 0 1708 423" fill="none" xmlns="http://www.w3.org/2000/svg">
<rect x="7" y="358" width="1684" height="49" fill="#957755"/>
<path d="M605.634 42.058V198.14H577.596V42.058C577.596 34.3193 583.895 28.0386 591.634 28.0386C599.354 28.0386 605.634 34.3193 605.634 42.058Z" fill="#3DD468"/>
<path d="M641.542 226.178L629.71 343.941H553.538L541.706 226.178H641.542Z" fill="#E55A42"/>
<path d="M309.77 92.9574L415.027 316.182L365.997 339.305L260.74 116.061L309.77 92.9574Z" fill="#E2C744"/>
<path d="M145.801 83.1252V343.941H91.5928V71.9659H145.801V83.1252Z" fill="#4785DD"/>
<path d="M228.048 97.1445H173.84V343.94H228.048V97.1445Z" fill="#E55A42"/>
<path d="M1707.73 357.96V408.429C1707.73 416.187 1701.45 422.449 1693.71 422.449H14.0193C6.28065 422.449 0 416.187 0 408.429V357.96C0 350.221 6.28065 343.94 14.0193 343.94H63.5542V57.9465C63.5542 50.1891 69.8349 43.9272 77.5735 43.9272H159.82C167.578 43.9272 173.84 50.1891 173.84 57.9465V69.1059H242.067C249.824 69.1059 256.086 75.3678 256.086 83.1252V87.2562L310.481 61.6102C317.491 58.3017 325.846 61.3111 329.155 68.3021L446.356 316.893C449.665 323.902 446.674 332.258 439.664 335.566L421.888 343.94H525.369L512.247 213.561C511.855 209.617 513.144 205.691 515.799 202.757C518.453 199.803 522.229 198.14 526.192 198.14H549.557V42.0579C549.557 18.8606 568.437 0 591.615 0H591.634C614.812 0 633.673 18.8606 633.673 42.0579V97.2006H643.019V62.6196C643.019 54.881 649.3 48.6003 657.039 48.6003C664.796 48.6003 671.058 54.881 671.058 62.6196V111.22C671.058 118.959 664.796 125.239 657.039 125.239H633.673V198.14H657.039C661.001 198.14 664.777 199.803 667.45 202.757C670.105 205.691 671.394 209.617 671.002 213.561L657.88 343.94H1693.71C1701.45 343.94 1707.73 350.221 1707.73 357.96ZM1679.69 394.41V371.979H28.0386V394.41H1679.69ZM629.71 343.94L641.543 226.178H541.706L553.539 343.94H629.71ZM605.634 198.14V42.0579C605.634 34.3193 599.354 28.0386 591.634 28.0386C583.895 28.0386 577.596 34.3193 577.596 42.0579V198.14H605.634ZM415.028 316.182L309.771 92.9574L260.741 116.061L365.998 339.305L415.028 316.182ZM337.174 343.94L256.086 171.97V343.94H337.174ZM228.048 343.94V97.1445H173.84V343.94H228.048ZM145.801 343.94V83.1252V71.9658H91.5929V343.94H145.801Z" fill="#353030"/>
</svg>
